<?xml version='1.0' encoding='utf-8'?>
<svg xmlns="http://www.w3.org/2000/svg" version="1.1" id="Layer_1" x="0px" y="0px" viewBox="0 0 1808 1701.9" enable-background="new 0 0 1808 1701.9"> <g> <circle cx="919.2" cy="125.3" r="17.6"/> <circle cx="966.2" cy="139.1" r="17.3"/> <circle cx="920.4" cy="70.6" r="18.2"/> <circle cx="933.9" cy="173.5" r="16.8"/> <circle cx="859.6" cy="160.4" r="17.3"/> <circle cx="841.4" cy="129" r="18.2"/> <circle cx="879.5" cy="90.2" r="17.2"/> <circle cx="953.7" cy="87.4" r="17.2"/> <circle cx="904.3" cy="190.9" r="17.5"/> <circle cx="896.8" cy="156" r="17.6"/> <circle cx="909.4" cy="98.2" r="11.3"/> <circle cx="852.1" cy="100.7" r="12.1"/> <circle cx="869.8" cy="121.6" r="11.2"/> <circle cx="889.1" cy="58.8" r="12"/> <circle cx="971.9" cy="109.5" r="11.4"/> <circle cx="874.8" cy="185.7" r="12.2"/> <circle cx="946.5" cy="116.4" r="11.2"/> <circle cx="935.9" cy="148.8" r="8"/> <circle cx="960.7" cy="164.3" r="8.4"/> <circle cx="848.3" cy="77.4" r="7.6"/> <circle cx="933.3" cy="101.2" r="7.5"/> <circle cx="867.8" cy="65" r="7.7"/> <circle cx="889.8" cy="131.9" r="7.5"/> <circle cx="891.3" cy="111.9" r="7.5"/> <circle cx="834.5" cy="101.1" r="5.5"/> <circle cx="879.1" cy="141" r="5.6"/> <circle cx="834.8" cy="157.8" r="5.5"/> <circle cx="920.3" cy="148.4" r="5.4"/> <circle cx="855.2" cy="66.8" r="5"/> <circle cx="943.4" cy="63.8" r="5.7"/> <circle cx="865.8" cy="137.9" r="5.6"/> <circle cx="908.7" cy="50.6" r="5"/> <circle cx="942.4" cy="132.9" r="5.8"/> <circle cx="843.3" cy="175.6" r="5"/> <circle cx="861.2" cy="77.2" r="5.2"/> <circle cx="952.8" cy="184.2" r="5"/> <circle cx="856.2" cy="185" r="6"/> <circle cx="949.6" cy="241.3" r="8.3"/> <circle cx="919.8" cy="249.6" r="8.5"/> <circle cx="871.8" cy="235.4" r="8.1"/> <circle cx="918" cy="230.7" r="8.2"/> <circle cx="844.3" cy="235.1" r="8.4"/> <circle cx="903" cy="242.3" r="8.2"/> <circle cx="857.1" cy="247" r="8.3"/> <circle cx="964.3" cy="232.4" r="8.2"/> <circle cx="884.5" cy="253.3" r="8.2"/> <circle cx="935.1" cy="231.5" r="8.4"/> <circle cx="971.2" cy="247.8" r="8.4"/> <circle cx="838.3" cy="251.1" r="8.8"/> <circle cx="890.2" cy="231.9" r="8.3"/> <circle cx="940.7" cy="254.4" r="5.7"/> <circle cx="954.2" cy="254.5" r="5.7"/> <circle cx="869.1" cy="253.6" r="5.5"/> <circle cx="978" cy="235.2" r="5.7"/> <circle cx="856.5" cy="228.8" r="5.4"/> <circle cx="905.3" cy="255.8" r="5.5"/> <circle cx="904.2" cy="229.8" r="4.4"/> <circle cx="829.6" cy="239.3" r="5.2"/> <circle cx="948.2" cy="227.8" r="4.2"/> <circle cx="983.4" cy="243.2" r="3.8"/> <circle cx="931.9" cy="251.3" r="3.6"/> <circle cx="881.8" cy="241.8" r="3.6"/> <circle cx="931.3" cy="242.8" r="3.6"/> <circle cx="938.1" cy="245.2" r="3.6"/> <circle cx="831.6" cy="230.8" r="3.6"/> <circle cx="896.5" cy="258.1" r="3.6"/> <circle cx="964.8" cy="256.9" r="2.7"/> <circle cx="851" cy="259" r="2.4"/> <circle cx="893.7" cy="247.3" r="2.4"/> <circle cx="861.7" cy="256.6" r="2.4"/> <circle cx="932.7" cy="258.1" r="3.2"/> <circle cx="926.4" cy="258.3" r="2.4"/> <circle cx="955.4" cy="225.6" r="3"/> <circle cx="895.8" cy="251.7" r="2.5"/> <circle cx="867.7" cy="245.3" r="2.5"/> <circle cx="859.5" cy="236.4" r="2.6"/> <circle cx="914" cy="258.8" r="2.4"/> <circle cx="873.4" cy="245.9" r="2.4"/> <circle cx="960.3" cy="248" r="2.4"/> <circle cx="875.8" cy="225.6" r="2.4"/> <circle cx="825.8" cy="247" r="3.1"/> <circle cx="880.6" cy="225.7" r="2.4"/> <circle cx="849.4" cy="225.5" r="2.4"/> <circle cx="870.4" cy="225" r="2.4"/> <circle cx="953.7" cy="231.4" r="2.4"/> <circle cx="1439.4" cy="187" r="18.6"/> <circle cx="1662.5" cy="186.7" r="18.4"/> <circle cx="979.3" cy="366.2" r="17.9"/> <circle cx="1494.5" cy="192.1" r="18.2"/> <circle cx="1565.5" cy="162.2" r="17.9"/> <circle cx="1625.4" cy="175.4" r="17.4"/> <circle cx="1135.9" cy="279.6" r="17.8"/> <circle cx="1185.7" cy="159.8" r="17.9"/> <circle cx="1374.4" cy="159.2" r="18"/> <circle cx="1143.8" cy="200.3" r="17.9"/> <circle cx="1097" cy="319.7" r="17.4"/> <circle cx="1226.3" cy="153.9" r="17.6"/> <circle cx="1319.6" cy="154.9" r="17.8"/> <circle cx="1558" cy="200.1" r="18.9"/> <circle cx="1175.8" cy="249.8" r="17.9"/> <circle cx="1700.9" cy="183.5" r="17.7"/> <circle cx="1131.7" cy="325.2" r="17.6"/> <circle cx="1092.5" cy="358" r="17.4"/> <circle cx="1182.5" cy="212.1" r="17.4"/> <circle cx="1260.2" cy="168" r="19.1"/> <circle cx="1169.5" cy="298.9" r="17.8"/> <circle cx="1121.8" cy="230.1" r="17.4"/> <circle cx="1212.4" cy="185.9" r="17.4"/> <circle cx="1050.5" cy="358.9" r="17.6"/> <circle cx="1145.7" cy="160.5" r="18.1"/> <circle cx="1531" cy="169.2" r="17.4"/> <circle cx="1396.1" cy="187.1" r="17.4"/> <circle cx="1106.4" cy="194.1" r="18.7"/> <circle cx="1592.1" cy="186.4" r="17.6"/> <circle cx="1302.9" cy="180.1" r="11.8"/> <circle cx="1468.9" cy="172.7" r="12.8"/> <circle cx="1405.5" cy="153.3" r="12.9"/> <circle cx="1429.8" cy="155.7" r="11.6"/> <circle cx="1488.4" cy="155.6" r="12.4"/> <circle cx="1681.2" cy="158.8" r="13.9"/> <circle cx="1326.8" cy="187.9" r="12"/> <circle cx="1012.2" cy="366.9" r="12"/> <circle cx="954.6" cy="388.2" r="12.2"/> <circle cx="1733.3" cy="177.2" r="11.8"/> <circle cx="1682.7" cy="210.5" r="12.1"/> <circle cx="1121.2" cy="354.3" r="11.6"/> <circle cx="1106.8" cy="266.9" r="12.2"/> <circle cx="1353.4" cy="180.5" r="12"/> <circle cx="959.5" cy="344.4" r="11.6"/> <circle cx="1116" cy="165.7" r="7.8"/> <circle cx="1167.2" cy="189.5" r="7.8"/> <circle cx="1644.8" cy="152.5" r="9.3"/> <circle cx="1168.7" cy="327.4" r="8.7"/> <circle cx="1146.4" cy="345.7" r="7.7"/> <circle cx="1608.9" cy="153.8" r="9.7"/> <circle cx="1150.1" cy="257.6" r="7.9"/> <circle cx="1611.9" cy="213.3" r="7.8"/> <circle cx="1530.8" cy="203" r="8.5"/> <circle cx="1149.1" cy="234.5" r="10.3"/> <circle cx="1647.5" cy="214.7" r="8.8"/> <circle cx="1071.4" cy="344.3" r="7.7"/> <circle cx="951.3" cy="365.9" r="8.9"/> <circle cx="1590.7" cy="154.5" r="8.4"/> <circle cx="1619.7" cy="199.9" r="7.7"/> <circle cx="1630.3" cy="216.8" r="8.3"/> <circle cx="1347" cy="145.4" r="8.2"/> <circle cx="1284.1" cy="152" r="8"/> <circle cx="1466.2" cy="152.4" r="7.7"/> <circle cx="1239" cy="184.7" r="7.9"/> <circle cx="1465.8" cy="201.5" r="9.7"/> <circle cx="1748.9" cy="156.3" r="7.9"/> <circle cx="1715.6" cy="156.9" r="9.4"/> <circle cx="1105.4" cy="288.7" r="7.9"/> <circle cx="1590.6" cy="212.6" r="8.7"/> <circle cx="1096.9" cy="237.5" r="8.6"/> <circle cx="1369.9" cy="191.6" r="7.9"/> <circle cx="1279.4" cy="186.8" r="7.8"/> <circle cx="1188.8" cy="275.6" r="8"/> <circle cx="1636.5" cy="202.1" r="7.7"/> <circle cx="1135" cy="253.5" r="7.7"/> <circle cx="1164.1" cy="174.8" r="5.2"/> <circle cx="1661" cy="218.5" r="5.2"/> <circle cx="973.5" cy="392.3" r="5.2"/> <circle cx="1091.6" cy="212.8" r="5.2"/> <circle cx="1068.7" cy="372.9" r="5.4"/> <circle cx="1248.5" cy="145.8" r="5.3"/> <circle cx="1511.2" cy="151.1" r="5.3"/> <circle cx="1445.7" cy="149" r="5.7"/> <circle cx="1446" cy="163.1" r="6.2"/> <circle cx="1347.3" cy="161.7" r="7.8"/> <circle cx="1157.9" cy="268.7" r="5.6"/> <circle cx="1653.9" cy="164.7" r="5.2"/> <circle cx="1722.5" cy="195.5" r="7"/> <circle cx="953" cy="318.6" r="5.7"/> <circle cx="1419.2" cy="171.9" r="6.6"/> <circle cx="1095.6" cy="253.6" r="5.2"/> <circle cx="1296.7" cy="148.1" r="5.2"/> <circle cx="1517.3" cy="197.2" r="5.2"/> <circle cx="1539.6" cy="148.1" r="5.5"/> <circle cx="1511.6" cy="210.7" r="5.2"/> <circle cx="1174.4" cy="139.8" r="5.2"/> <circle cx="1001.7" cy="353.2" r="5.2"/> <circle cx="1127.7" cy="301.9" r="5.9"/> <circle cx="1161" cy="343.5" r="5.5"/> <circle cx="1623.8" cy="150.7" r="5.5"/> <circle cx="978.9" cy="342.7" r="5.5"/> <circle cx="1258.3" cy="142.2" r="5.2"/> <circle cx="1298.4" cy="163.8" r="5.2"/> <circle cx="1155.4" cy="323.7" r="5.2"/> <circle cx="1116.4" cy="306.8" r="5.9"/> <circle cx="1337.6" cy="172.9" r="5.5"/> <circle cx="1736.3" cy="159.7" r="5.2"/> <circle cx="947.6" cy="409.9" r="5.3"/> <circle cx="1131.1" cy="181" r="5.2"/> <circle cx="1117.8" cy="292.4" r="4.4"/> <circle cx="957.4" cy="408.6" r="4.6"/> <circle cx="1700.8" cy="148.7" r="4.4"/> <circle cx="1122.9" cy="175.8" r="4.4"/> <circle cx="1289" cy="166.3" r="4.5"/> <circle cx="1421.4" cy="204.2" r="4"/> <circle cx="1703" cy="162.4" r="3.4"/> <circle cx="980.6" cy="387.5" r="3.4"/> <circle cx="1141.5" cy="305.1" r="4.5"/> <circle cx="1461.4" cy="187.6" r="3.4"/> <circle cx="1003.2" cy="381.3" r="4.5"/> <circle cx="1520" cy="208.2" r="3.5"/> <circle cx="1604.2" cy="169" r="3.5"/> <circle cx="1147" cy="299.4" r="3.4"/> <circle cx="1119.2" cy="154.9" r="3.4"/> <circle cx="1199.8" cy="223.7" r="3.4"/> <circle cx="951.3" cy="327.5" r="3.4"/> <circle cx="1197.3" cy="248.2" r="3.7"/> <circle cx="1094.4" cy="291.5" r="3.4"/> <circle cx="1092.4" cy="224.7" r="5"/> <circle cx="1122.6" cy="263" r="3.4"/> <circle cx="1183.2" cy="191.3" r="3.5"/> <circle cx="1068.9" cy="332.9" r="3.5"/> <circle cx="1701.5" cy="205.6" r="4.4"/> <circle cx="1603.8" cy="204.6" r="4.1"/> <circle cx="1501.9" cy="166.2" r="4.4"/> <circle cx="1672.3" cy="221.9" r="3.4"/> <circle cx="1453.3" cy="143.9" r="3.5"/> <circle cx="1530.4" cy="190.9" r="3.7"/> <circle cx="1178.4" cy="270.9" r="3.4"/> <circle cx="1727.9" cy="153.3" r="3.4"/> <circle cx="1101.4" cy="226" r="3.4"/> <circle cx="1477.9" cy="206.5" r="3.4"/> <circle cx="1659.8" cy="153.6" r="5.7"/> <circle cx="1137.2" cy="358.7" r="5"/> <circle cx="1173.9" cy="278.1" r="3.4"/> <circle cx="946.9" cy="354.1" r="3.7"/> <circle cx="1503.2" cy="147.8" r="3.4"/> <circle cx="1577.1" cy="212" r="3.5"/> <circle cx="1746.2" cy="169" r="3.4"/> <circle cx="1152.2" cy="314.2" r="4.9"/> <circle cx="1504" cy="158.6" r="3.4"/> <circle cx="1166" cy="275.9" r="4.8"/> <circle cx="1164.2" cy="144.4" r="6"/> <circle cx="1579.9" cy="204.3" r="3.4"/> <circle cx="1710.9" cy="202.8" r="4.1"/> <circle cx="1100.4" cy="217.3" r="4.7"/> <circle cx="1549.4" cy="148" r="3.6"/> <circle cx="304.8" cy="196.7" r="17.4"/> <circle cx="350.7" cy="166.4" r="17.5"/> <circle cx="675.2" cy="315.4" r="18.2"/> <circle cx="452.9" cy="162.8" r="17.9"/> <circle cx="257.2" cy="169.3" r="17.5"/> <circle cx="491.7" cy="174.4" r="18.5"/> <circle cx="640.8" cy="306.6" r="17.4"/> <circle cx="134.4" cy="195" r="18"/> <circle cx="148.3" cy="161.1" r="18.5"/> <circle cx="651.1" cy="203.7" r="17.6"/> <circle cx="712.4" cy="349.5" r="17.5"/> <circle cx="639.3" cy="240.8" r="17.5"/> <circle cx="598.8" cy="154.9" r="17.7"/> <circle cx="679.7" cy="256" r="17.6"/> <circle cx="614.2" cy="190.3" r="18.3"/> <circle cx="686.4" cy="174.7" r="17.4"/> <circle cx="836.3" cy="360.4" r="17.6"/> <circle cx="417.6" cy="160.1" r="17.5"/> <circle cx="688.2" cy="217.7" r="18.2"/> <circle cx="524.2" cy="159.4" r="17.4"/> <circle cx="396.1" cy="189.4" r="17.9"/> <circle cx="102.8" cy="178.7" r="17.6"/> <circle cx="186.6" cy="151.1" r="17.7"/> <circle cx="220.4" cy="171.9" r="19.4"/> <circle cx="174.5" cy="199.1" r="17.4"/> <circle cx="314.8" cy="153.5" r="17.6"/> <circle cx="382.9" cy="150.7" r="17.4"/> <circle cx="650.3" cy="156.9" r="18"/> <circle cx="563.6" cy="175" r="18.2"/> <circle cx="209.6" cy="201.2" r="11.9"/> <circle cx="801.1" cy="365.7" r="11.7"/> <circle cx="751.1" cy="356.2" r="12.5"/> <circle cx="617.8" cy="282.7" r="12.8"/> <circle cx="286.4" cy="170.2" r="11.8"/> <circle cx="847.7" cy="392.7" r="13.7"/> <circle cx="437.7" cy="189" r="12.3"/> <circle cx="707.9" cy="317.3" r="11.7"/> <circle cx="667.6" cy="283" r="12"/> <circle cx="111.5" cy="146.9" r="12.5"/> <circle cx="615.2" cy="224.5" r="11.6"/> <circle cx="641" cy="270.8" r="12.5"/> <circle cx="653.9" cy="339" r="11.7"/> <circle cx="695.3" cy="288.2" r="13.3"/> <circle cx="239.2" cy="203.3" r="12.5"/> <circle cx="274" cy="193.1" r="11.6"/> <circle cx="68.9" cy="156.4" r="11.8"/> <circle cx="681.5" cy="344.6" r="11.7"/> <circle cx="774.2" cy="368.9" r="11.6"/> <circle cx="365.1" cy="194.3" r="13.5"/> <circle cx="708.3" cy="243.7" r="13"/> <circle cx="457.9" cy="188.9" r="7.8"/> <circle cx="613.9" cy="249.9" r="8.9"/> <circle cx="853.9" cy="329.4" r="9.8"/> <circle cx="189.7" cy="176.5" r="7.9"/> <circle cx="214" cy="142.4" r="9"/> <circle cx="85.6" cy="144.3" r="8.9"/> <circle cx="561.4" cy="148.1" r="7.8"/> <circle cx="353.3" cy="141.3" r="7.7"/> <circle cx="239.6" cy="144.4" r="8.3"/> <circle cx="826.2" cy="387.9" r="8.1"/> <circle cx="480.1" cy="146.9" r="11.4"/> <circle cx="706.3" cy="270.3" r="7.7"/> <circle cx="332" cy="189.8" r="8.5"/> <circle cx="265.3" cy="145.3" r="7.9"/> <circle cx="149.7" cy="215.7" r="7.7"/> <circle cx="689.9" cy="364.7" r="7.8"/> <circle cx="629.5" cy="141.6" r="7.8"/> <circle cx="498.6" cy="142.1" r="7.7"/> <circle cx="712.9" cy="195.4" r="8.2"/> <circle cx="734.6" cy="369.8" r="8.7"/> <circle cx="666.4" cy="234.5" r="7.7"/> <circle cx="284.8" cy="140.2" r="6.3"/> <circle cx="678.6" cy="195.9" r="5.2"/> <circle cx="259.8" cy="203.8" r="6.2"/> <circle cx="716.5" cy="208.8" r="5.7"/> <circle cx="726.3" cy="330" r="6.5"/> <circle cx="574.4" cy="152.1" r="5.8"/> <circle cx="860.7" cy="378.9" r="5.2"/> <circle cx="588.3" cy="178.5" r="6.8"/> <circle cx="531.9" cy="182.6" r="7.1"/> <circle cx="638.9" cy="180.7" r="8.1"/> <circle cx="590.3" cy="192.5" r="5.7"/> <circle cx="227.3" cy="216.6" r="5.2"/> <circle cx="621.2" cy="160.5" r="5.2"/> <circle cx="113.7" cy="213.6" r="5.6"/> <circle cx="471.7" cy="187.1" r="5.2"/> <circle cx="373.8" cy="172.1" r="5.9"/> <circle cx="450.5" cy="139.9" r="5.2"/> <circle cx="517.3" cy="184.7" r="6.7"/> <circle cx="710.5" cy="182.1" r="5.3"/> <circle cx="439" cy="143.2" r="6.1"/> <circle cx="857.3" cy="313.9" r="6.1"/> <circle cx="857.4" cy="351.5" r="5.3"/> <circle cx="126.7" cy="172.3" r="5.7"/> <circle cx="739.6" cy="336.6" r="6.8"/> <circle cx="327" cy="207.5" r="5.4"/> <circle cx="317.7" cy="176.9" r="5.9"/> <circle cx="609.3" cy="264.8" r="6.5"/> <circle cx="712.5" cy="219.1" r="5.4"/> <circle cx="191.1" cy="216.9" r="6.9"/> <circle cx="78.3" cy="174.7" r="6.3"/> <circle cx="161.8" cy="141.4" r="5.4"/> <circle cx="508.3" cy="192.4" r="5.2"/> <circle cx="163.3" cy="218.7" r="5.2"/> <circle cx="663.4" cy="352.9" r="5.2"/> <circle cx="638" cy="331.2" r="6.1"/> <circle cx="343.8" cy="197.5" r="5.6"/> <circle cx="127.9" cy="140.2" r="5.2"/> <circle cx="64.3" cy="138.6" r="5.2"/> <circle cx="858.2" cy="409.2" r="5.8"/> <circle cx="81.3" cy="187.8" r="5.7"/> <circle cx="463.8" cy="139.8" r="6.4"/> <circle cx="596.1" cy="202.3" r="3.4"/> <circle cx="529.2" cy="139.2" r="3.5"/> <circle cx="252" cy="137.3" r="3.8"/> <circle cx="333.6" cy="201.6" r="3.4"/> <circle cx="90.5" cy="160.6" r="4.3"/> <circle cx="747" cy="373.1" r="4.1"/> <circle cx="776.1" cy="352.5" r="4.9"/> <circle cx="657.2" cy="262.6" r="5.7"/> <circle cx="816.2" cy="378" r="3.5"/> <circle cx="733.3" cy="351" r="3.4"/> <circle cx="205.4" cy="219.7" r="3.6"/> <circle cx="661.1" cy="182.6" r="5.8"/> <circle cx="854" cy="342.6" r="3.4"/> <circle cx="656.7" cy="224" r="3.4"/> <circle cx="291.6" cy="152" r="3.8"/> <circle cx="69" cy="171.6" r="3.4"/> <circle cx="258.1" cy="192" r="4.3"/> <circle cx="175.2" cy="176.4" r="5.2"/> <circle cx="618.9" cy="299.2" r="3.7"/> <circle cx="215" cy="217.1" r="4.9"/> <circle cx="550.7" cy="144.6" r="3.4"/> <circle cx="278.2" cy="147.5" r="3.4"/> <circle cx="413.9" cy="202" r="3.8"/> <circle cx="99.9" cy="203.4" r="5.7"/> <circle cx="758.3" cy="370.5" r="3.4"/> <circle cx="626.9" cy="324.4" r="3.8"/> <circle cx="285" cy="154.9" r="3.4"/> <circle cx="607.5" cy="239.4" r="3.4"/> <circle cx="422" cy="189.7" r="3.4"/> <circle cx="160.6" cy="179.9" r="3.9"/> <circle cx="148.2" cy="137" r="3.6"/> <circle cx="614.7" cy="140.9" r="3.4"/> <circle cx="857.5" cy="369.5" r="4.8"/> <circle cx="792.8" cy="353.1" r="3.4"/> <circle cx="627.3" cy="166.7" r="3.4"/> <circle cx="792.5" cy="379.4" r="4.4"/> <circle cx="108.9" cy="204.8" r="3.4"/> <circle cx="87.3" cy="196" r="4"/> <circle cx="542.1" cy="177.4" r="3.4"/> <circle cx="138.5" cy="138.4" r="5"/> <circle cx="678.3" cy="360.7" r="4.4"/> <circle cx="818.4" cy="371.5" r="3.4"/> <circle cx="228.8" cy="137.1" r="3.8"/> <circle cx="301.8" cy="176.1" r="3.4"/> <circle cx="722.7" cy="314.4" r="3.4"/> <circle cx="698.9" cy="198.9" r="3.4"/> <circle cx="624" cy="264.1" r="5.8"/> <circle cx="710.8" cy="280.6" r="3.6"/> <circle cx="297.6" cy="141.4" r="3.4"/> <circle cx="52.4" cy="145" r="3.5"/> <circle cx="663.7" cy="173.6" r="3.4"/> <circle cx="543.4" cy="145.3" r="3.9"/> <circle cx="338.9" cy="147.8" r="4.5"/> <circle cx="275.2" cy="158.5" r="3.5"/> <circle cx="714.8" cy="228.6" r="3.4"/> <circle cx="469.4" cy="196.7" r="4.3"/> <circle cx="251.3" cy="144.5" r="3.4"/> <circle cx="424" cy="180.5" r="3.8"/> <circle cx="172.2" cy="167.3" r="4"/> <circle cx="339" cy="139.6" r="3.6"/> <circle cx="119.3" cy="164" r="4.5"/> <circle cx="681.2" cy="152" r="5.9"/> <circle cx="224.1" cy="208.6" r="3.4"/> <circle cx="176.7" cy="220.7" r="3.6"/> <circle cx="1462.1" cy="250.1" r="19.2"/> <circle cx="1301.2" cy="229.6" r="19.2"/> <circle cx="1347.9" cy="244.3" r="19.5"/> <circle cx="1551.3" cy="257.4" r="19.4"/> <circle cx="1589.4" cy="262.2" r="19"/> <circle cx="1398.8" cy="246.7" r="19.3"/> <circle cx="1503.9" cy="263.4" r="19.3"/> <circle cx="1260.6" cy="223.8" r="12.9"/> <circle cx="1431.6" cy="259.2" r="12.7"/> <circle cx="1513.1" cy="236.7" r="8.5"/> <circle cx="1568.2" cy="279.7" r="8.5"/> <circle cx="1275.9" cy="242.7" r="9.3"/> <circle cx="1528.7" cy="277" r="9"/> <circle cx="1491.8" cy="238" r="8.7"/> <circle cx="1433.6" cy="234.6" r="12.1"/> <circle cx="1614.8" cy="249.6" r="9.3"/> <circle cx="1373.2" cy="225.3" r="8.9"/> <circle cx="1279.5" cy="217.2" r="5.7"/> <circle cx="1316.1" cy="250.2" r="6.2"/> <circle cx="1415.9" cy="228.6" r="5.6"/> <circle cx="1373.3" cy="251.9" r="6.7"/> <circle cx="1476.8" cy="271.5" r="6.8"/> <circle cx="1531.6" cy="241.4" r="6"/> <circle cx="1631" cy="244.4" r="5.8"/> <circle cx="1242.6" cy="215.6" r="6.8"/> <circle cx="1327.5" cy="226.6" r="6.5"/> <circle cx="1338" cy="220.3" r="5.6"/> <circle cx="1551.5" cy="283.1" r="6.3"/> <circle cx="1254.1" cy="241.2" r="5.6"/> <circle cx="1575.4" cy="240.1" r="6.5"/> <circle cx="1526" cy="251.9" r="5.6"/> <circle cx="408.5" cy="244.2" r="19.2"/> <circle cx="266.2" cy="264.5" r="19.1"/> <circle cx="476.4" cy="236.5" r="19.2"/> <circle cx="216.2" cy="255.4" r="19.7"/> <circle cx="524.3" cy="234.5" r="20.3"/> <circle cx="329.5" cy="246.2" r="20.3"/> <circle cx="368.4" cy="241.2" r="19"/> <circle cx="555.2" cy="220" r="13.8"/> <circle cx="301.1" cy="265.3" r="13.9"/> <circle cx="444.6" cy="235.4" r="12.7"/> <circle cx="441.6" cy="257.2" r="9.2"/> <circle cx="182" cy="246.7" r="8.6"/> <circle cx="299.9" cy="239.9" r="10"/> <circle cx="237.8" cy="278.7" r="12.1"/> <circle cx="355.7" cy="266.4" r="9.2"/> <circle cx="322.3" cy="274" r="8.5"/> <circle cx="251" cy="241.5" r="8.5"/> <circle cx="280.6" cy="239.4" r="9.4"/> <circle cx="385.1" cy="261.2" r="7.1"/> <circle cx="501.3" cy="251.2" r="6.9"/> <circle cx="554.8" cy="242.7" r="7.9"/> <circle cx="241.1" cy="261.3" r="5.7"/> <circle cx="236" cy="239.5" r="5.6"/> <circle cx="501.6" cy="219.9" r="6.7"/> <circle cx="426" cy="261.7" r="5.6"/> <circle cx="337.1" cy="272.8" r="6.4"/> <circle cx="366.6" cy="314.6" r="9.2"/> <circle cx="443" cy="306.8" r="8.9"/> <circle cx="394.8" cy="327.2" r="7.9"/> <circle cx="535.8" cy="301.7" r="8.3"/> <circle cx="529.4" cy="286" r="8.4"/> <circle cx="456.4" cy="316.9" r="7.9"/> <circle cx="437.3" cy="324.8" r="8.1"/> <circle cx="490.8" cy="286.4" r="10"/> <circle cx="332" cy="326.5" r="10.6"/> <circle cx="416.4" cy="312.6" r="8.1"/> <circle cx="380.1" cy="296.2" r="8.4"/> <circle cx="412.9" cy="293.1" r="10"/> <circle cx="507.2" cy="279.3" r="7.9"/> <circle cx="449.7" cy="286" r="7.9"/> <circle cx="369.4" cy="331.4" r="7.9"/> <circle cx="340.4" cy="303.6" r="8"/> <circle cx="493" cy="305.6" r="9.3"/> <circle cx="290" cy="310.8" r="8.6"/> <circle cx="471.9" cy="292.6" r="8.1"/> <circle cx="316.5" cy="315.3" r="8.4"/> <circle cx="519.9" cy="299.1" r="7.9"/> <circle cx="346.1" cy="340.1" r="7.9"/> <circle cx="472.9" cy="317.1" r="7.9"/> <circle cx="392.2" cy="307.1" r="7.9"/> <circle cx="353.4" cy="326.1" r="7.9"/> <circle cx="413.1" cy="328.2" r="7.9"/> <circle cx="308.7" cy="329.8" r="8"/> <circle cx="358.9" cy="298.9" r="8.2"/> <circle cx="544.4" cy="279.3" r="8"/> <circle cx="434.5" cy="291.6" r="8.3"/> <circle cx="456" cy="298" r="5.7"/> <circle cx="507.7" cy="310.1" r="6.1"/> <circle cx="293.1" cy="324.3" r="5.2"/> <circle cx="318.6" cy="301.8" r="5.2"/> <circle cx="381.7" cy="321.2" r="6.6"/> <circle cx="306.7" cy="304.5" r="6.2"/> <circle cx="383.5" cy="336.4" r="6.7"/> <circle cx="465.6" cy="306.2" r="5.2"/> <circle cx="321.3" cy="338.2" r="5.2"/> <circle cx="397.3" cy="291.5" r="5.7"/> <circle cx="351.8" cy="310.2" r="5.2"/> <circle cx="464.5" cy="281.5" r="5.2"/> <circle cx="404.2" cy="318" r="5.2"/> <circle cx="504.4" cy="296.7" r="5.2"/> <circle cx="1459" cy="336" r="9.2"/> <circle cx="1283.2" cy="292.5" r="8.3"/> <circle cx="1434.4" cy="312.6" r="8.8"/> <circle cx="1401.2" cy="331" r="8.2"/> <circle cx="1503.4" cy="319.5" r="8.3"/> <circle cx="1379.7" cy="319.2" r="9.7"/> <circle cx="1319.5" cy="291.2" r="9.7"/> <circle cx="1323.6" cy="310.6" r="10.1"/> <circle cx="1418.4" cy="329.9" r="9.1"/> <circle cx="1479.9" cy="331.1" r="8"/> <circle cx="1345.4" cy="310.8" r="8.6"/> <circle cx="1415.2" cy="312.8" r="8.3"/> <circle cx="1424.7" cy="296.3" r="8"/> <circle cx="1302.3" cy="295" r="7.9"/> <circle cx="1367.2" cy="293.7" r="8.7"/> <circle cx="1267.3" cy="295.7" r="7.9"/> <circle cx="1451.9" cy="319.3" r="7.9"/> <circle cx="1460.2" cy="303.1" r="10.2"/> <circle cx="1395.4" cy="307.4" r="8.3"/> <circle cx="1488.6" cy="308.9" r="8"/> <circle cx="1440.6" cy="337.7" r="9.2"/> <circle cx="1359.7" cy="320.7" r="8.1"/> <circle cx="1269" cy="273.7" r="8.1"/> <circle cx="1467.5" cy="321.1" r="7.9"/> <circle cx="1409" cy="294.2" r="7.9"/> <circle cx="1339.7" cy="283.7" r="8.2"/> <circle cx="1518.6" cy="312.2" r="8.6"/> <circle cx="1390.2" cy="292.1" r="7.9"/> <circle cx="1295.4" cy="279.5" r="8"/> <circle cx="1442.9" cy="298.2" r="7.9"/> <circle cx="1279.2" cy="305.9" r="5.7"/> <circle cx="1376.6" cy="304.5" r="5.2"/> <circle cx="1306.4" cy="309.6" r="7.2"/> <circle cx="1499.7" cy="332.6" r="5.2"/> <circle cx="1350.9" cy="291.1" r="5.2"/> <circle cx="1309.5" cy="278.1" r="6.1"/> <circle cx="1291.2" cy="305.6" r="6.3"/> <circle cx="1367.4" cy="309.8" r="5.2"/> <circle cx="1355.7" cy="301.6" r="5.2"/> <circle cx="1283.2" cy="274.2" r="5.2"/> <circle cx="1340.4" cy="297.8" r="5.4"/> <circle cx="1502.1" cy="304" r="5.8"/> <circle cx="1477.6" cy="301.5" r="5.2"/> <circle cx="1345.8" cy="377.2" r="7.5"/> <circle cx="1357.5" cy="362.2" r="6.1"/> <circle cx="1405.3" cy="371.8" r="6.4"/> <circle cx="1264.1" cy="333.8" r="6.6"/> <circle cx="1334.5" cy="365.1" r="7.4"/> <circle cx="1275.9" cy="339.5" r="6.5"/> <circle cx="1373.9" cy="382.7" r="6.8"/> <circle cx="1308.3" cy="344.9" r="7.1"/> <circle cx="1377.6" cy="369.9" r="6.1"/> <circle cx="1344.1" cy="347.1" r="6.8"/> <circle cx="1414.3" cy="363.2" r="6.1"/> <circle cx="1391.9" cy="364.6" r="7.3"/> <circle cx="1268.1" cy="360.5" r="6.2"/> <circle cx="1289.7" cy="336.6" r="7.6"/> <circle cx="1327.8" cy="377.2" r="6.5"/> <circle cx="1361.2" cy="381.1" r="6.1"/> <circle cx="1256.9" cy="344.3" r="6.1"/> <circle cx="1307.2" cy="358.1" r="6.1"/> <circle cx="1283.8" cy="358.6" r="6.3"/> <circle cx="1300.6" cy="371.9" r="7.1"/> <circle cx="1321.8" cy="354.3" r="6.1"/> <circle cx="1392" cy="383.7" r="6.6"/> <circle cx="1361.1" cy="350.6" r="6.1"/> <circle cx="1375.4" cy="357.9" r="6.1"/> <circle cx="1315" cy="379.2" r="6.1"/> <circle cx="1336.5" cy="387.1" r="6.1"/> <circle cx="1317.3" cy="367.2" r="6.1"/> <circle cx="1255.5" cy="357.8" r="6.6"/> <circle cx="1294.3" cy="350.2" r="6.3"/> <circle cx="1328.3" cy="344" r="6.1"/> <circle cx="1345.5" cy="358.5" r="4.7"/> <circle cx="1353.1" cy="389.6" r="5.7"/> <circle cx="1281.3" cy="371" r="4.1"/> <circle cx="1401.3" cy="358.3" r="4"/> <circle cx="1293" cy="363.3" r="4"/> <circle cx="1333.2" cy="353.7" r="4"/> <circle cx="1289.4" cy="371.8" r="4"/> <circle cx="1265.7" cy="350.5" r="4"/> <circle cx="1366.5" cy="390.8" r="4.2"/> <circle cx="1276.1" cy="351.4" r="4.2"/> <circle cx="1284.4" cy="347.2" r="4"/> <circle cx="1424.7" cy="363.3" r="4.3"/> <circle cx="1362.8" cy="370.9" r="4.1"/> <circle cx="425.6" cy="387.2" r="6.3"/> <circle cx="477.6" cy="369.6" r="6.8"/> <circle cx="449.9" cy="383.6" r="6.1"/> <circle cx="464.5" cy="379.8" r="6.3"/> <circle cx="534.2" cy="340.7" r="6.6"/> <circle cx="548.1" cy="343.3" r="7.6"/> <circle cx="414.5" cy="365.3" r="6.3"/> <circle cx="485.6" cy="354.9" r="6.7"/> <circle cx="465.3" cy="349.8" r="6.2"/> <circle cx="502.9" cy="348.8" r="6.2"/> <circle cx="422.9" cy="356.3" r="6.1"/> <circle cx="427.5" cy="374.5" r="6.5"/> <circle cx="399" cy="372.7" r="6.9"/> <circle cx="445.3" cy="368.5" r="6.3"/> <circle cx="516.7" cy="365.2" r="6.5"/> <circle cx="443.2" cy="354.7" r="7.6"/> <circle cx="496.3" cy="364.2" r="6.3"/> <circle cx="552.1" cy="361.5" r="7.3"/> <circle cx="536" cy="357.8" r="6.5"/> <circle cx="485.6" cy="382.8" r="6.1"/> <circle cx="460" cy="362.5" r="6.2"/> <circle cx="415.4" cy="379.2" r="6.5"/> <circle cx="515.2" cy="349.6" r="6.1"/> <circle cx="384.5" cy="363.9" r="6.2"/> <circle cx="511.9" cy="337.1" r="6.8"/> <circle cx="487.6" cy="341.6" r="6.3"/> <circle cx="544.6" cy="330.1" r="6.1"/> <circle cx="502.4" cy="375.1" r="6.1"/> <circle cx="437.8" cy="389.1" r="6.1"/> <circle cx="497.7" cy="339.7" r="4.1"/> <circle cx="454.9" cy="353.6" r="4.1"/> <circle cx="522.8" cy="336.8" r="4.1"/> <circle cx="470.8" cy="388" r="4.1"/> <circle cx="431.2" cy="364" r="4.6"/> <circle cx="533.5" cy="370.4" r="4.4"/> <circle cx="474" cy="343.5" r="4.6"/> <circle cx="527.3" cy="351.8" r="4.1"/> <circle cx="475.3" cy="352" r="4.1"/> <circle cx="438.8" cy="376.5" r="4.1"/> <circle cx="488.8" cy="373.2" r="4.1"/> <circle cx="457" cy="391" r="4.1"/> <circle cx="403.3" cy="359.3" r="4.7"/> <circle cx="472.6" cy="359.9" r="4.1"/> <circle cx="395.2" cy="362.4" r="4.1"/> <circle cx="431.8" cy="351.2" r="4.2"/> <circle cx="506.6" cy="362.1" r="4.1"/> <circle cx="530.3" cy="330.8" r="4.1"/> <circle cx="674.9" cy="404.9" r="11.1"/> <circle cx="590.7" cy="347.2" r="11.6"/> <circle cx="814.3" cy="422" r="11.2"/> <circle cx="730.7" cy="413.5" r="11.5"/> <circle cx="780.5" cy="413.3" r="11.4"/> <circle cx="577.7" cy="296.7" r="11.2"/> <circle cx="589.3" cy="324.5" r="11.2"/> <circle cx="626.3" cy="393.1" r="11.7"/> <circle cx="705.2" cy="407.7" r="11.2"/> <circle cx="620.2" cy="365.2" r="11.2"/> <circle cx="649.6" cy="383.5" r="12.2"/> <circle cx="648.4" cy="406.8" r="11.1"/> <circle cx="758.9" cy="407.3" r="11.1"/> <circle cx="582.9" cy="258.1" r="7.7"/> <circle cx="831.3" cy="434.3" r="8.1"/> <circle cx="609.4" cy="341.1" r="7.4"/> <circle cx="581.9" cy="273.1" r="7.4"/> <circle cx="604.6" cy="379.4" r="7.4"/> <circle cx="846.1" cy="444.7" r="8.4"/> <circle cx="691.4" cy="395.3" r="7.5"/> <circle cx="800.1" cy="409.9" r="7.6"/> <circle cx="685.5" cy="420.1" r="7.4"/> <circle cx="607.3" cy="355.5" r="4.9"/> <circle cx="750.7" cy="422.9" r="5.5"/> <circle cx="744.4" cy="396.8" r="5.1"/> <circle cx="667.1" cy="385.2" r="5.3"/> <circle cx="574.4" cy="318.5" r="4.9"/> <circle cx="663.8" cy="416.8" r="5.1"/> <circle cx="637.6" cy="371.3" r="5"/> <circle cx="598.4" cy="368.7" r="4.9"/> <circle cx="731.6" cy="397.1" r="4.9"/> <circle cx="584.2" cy="245.3" r="5"/> <circle cx="852.1" cy="456.7" r="5.1"/> <circle cx="589.8" cy="363.7" r="4.9"/> <circle cx="797.6" cy="422.9" r="5.6"/> <circle cx="719.9" cy="398.2" r="6.3"/> <circle cx="677.4" cy="387.9" r="5.4"/> <circle cx="843" cy="432" r="3.8"/> <circle cx="703" cy="422.9" r="3.9"/> <circle cx="690.1" cy="408" r="3.9"/> <circle cx="857.2" cy="464.8" r="4.3"/> <circle cx="632.5" cy="410.6" r="3.4"/> <circle cx="604.4" cy="328.2" r="4.4"/> <circle cx="587.4" cy="308.7" r="4.2"/> <circle cx="576.8" cy="341.7" r="3.4"/> <circle cx="608.9" cy="391.3" r="4.5"/> <circle cx="585.4" cy="284.4" r="3.3"/> <circle cx="777.3" cy="397.6" r="3.8"/> <circle cx="595.2" cy="308.2" r="3.6"/> <circle cx="571.7" cy="309.8" r="3.3"/> <circle cx="571.8" cy="279" r="4.3"/> <circle cx="769.6" cy="423.2" r="3.4"/> <circle cx="711.7" cy="423.1" r="4.8"/> <circle cx="673.2" cy="420.1" r="4.2"/> <circle cx="615.5" cy="382.7" r="3.3"/> <circle cx="828.7" cy="420.1" r="3.3"/> <circle cx="631.9" cy="377.7" r="3.6"/> <circle cx="788.5" cy="400" r="3.7"/> <circle cx="573.9" cy="333.3" r="5"/> <circle cx="705.8" cy="393.3" r="3.3"/> <circle cx="696" cy="424.4" r="3.3"/> <circle cx="761.5" cy="424.1" r="4.4"/> <circle cx="811.3" cy="407.1" r="4.1"/> <circle cx="660.5" cy="397.6" r="4.1"/> <circle cx="837.1" cy="424.3" r="3.4"/> <circle cx="1221.1" cy="336.9" r="11.2"/> <circle cx="1225.4" cy="299.3" r="11.9"/> <circle cx="1137.4" cy="398.8" r="11.1"/> <circle cx="1000.4" cy="418.1" r="11.6"/> <circle cx="1066.7" cy="410.4" r="11.6"/> <circle cx="1023.3" cy="413.6" r="11.2"/> <circle cx="1168.6" cy="385" r="11.8"/> <circle cx="1091.6" cy="410.3" r="11.4"/> <circle cx="1191.7" cy="363" r="11.3"/> <circle cx="1157.8" cy="407.5" r="11.1"/> <circle cx="1116.3" cy="407" r="11.1"/> <circle cx="1228.5" cy="276.6" r="11.1"/> <circle cx="1191.4" cy="386" r="11.1"/> <circle cx="1044.4" cy="406.5" r="11.1"/> <circle cx="970.2" cy="439.9" r="7.5"/> <circle cx="1197" cy="345" r="7.5"/> <circle cx="1213.9" cy="361.4" r="7.9"/> <circle cx="1176.1" cy="404.4" r="7.5"/> <circle cx="1227.1" cy="319.3" r="7.4"/> <circle cx="1130.2" cy="419.1" r="7.4"/> <circle cx="1149.8" cy="381.1" r="7.4"/> <circle cx="982.7" cy="426.7" r="7.5"/> <circle cx="1050.6" cy="422.2" r="5.5"/> <circle cx="1214.4" cy="319.7" r="5.3"/> <circle cx="1226.3" cy="258.6" r="5.6"/> <circle cx="1223.8" cy="245.3" r="5.6"/> <circle cx="1105.8" cy="393.6" r="5.9"/> <circle cx="1103.2" cy="423.4" r="5.4"/> <circle cx="1174.5" cy="366.2" r="4.9"/> <circle cx="1122.5" cy="390.3" r="5.8"/> <circle cx="1078.4" cy="398.5" r="5.1"/> <circle cx="1115.6" cy="423.7" r="5"/> <circle cx="1207.1" cy="380.6" r="5.1"/> <circle cx="1203.6" cy="332.3" r="6.9"/> <circle cx="1209.7" cy="349" r="5.1"/> <circle cx="1040.2" cy="422.8" r="4.9"/> <circle cx="1057.6" cy="395.6" r="3.6"/> <circle cx="1211.4" cy="310.7" r="4.2"/> <circle cx="1091.6" cy="425" r="3.3"/> <circle cx="1008.5" cy="405.6" r="3.3"/> <circle cx="1143.3" cy="418.1" r="5.8"/> <circle cx="962.8" cy="448.8" r="4"/> <circle cx="1097" cy="396.5" r="3.3"/> <circle cx="1081" cy="423.8" r="4.8"/> <circle cx="1139.1" cy="383.3" r="3.5"/> <circle cx="1221.9" cy="352.8" r="3.8"/> <circle cx="1154.8" cy="392.7" r="4"/> <circle cx="1014.4" cy="425" r="3.3"/> <circle cx="972" cy="428.4" r="3.3"/> <circle cx="1162" cy="371.2" r="3.5"/> <circle cx="1218" cy="371.8" r="3.3"/> <circle cx="957.2" cy="453.7" r="3.4"/> <circle cx="1089.8" cy="395.2" r="3.8"/> <circle cx="1236.6" cy="313.6" r="3.7"/> <circle cx="1176.2" cy="358.1" r="3.3"/> <circle cx="1065.4" cy="395.1" r="3.5"/> <circle cx="1236.7" cy="288.7" r="3.6"/> <circle cx="1200.7" cy="374.5" r="3.3"/> <circle cx="1271.6" cy="401.9" r="4.8"/> <circle cx="1265.7" cy="414" r="6"/> <circle cx="1312.5" cy="408.5" r="5.1"/> <circle cx="1253.5" cy="404.1" r="4.9"/> <circle cx="1237.6" cy="399.4" r="4.9"/> <circle cx="1250.3" cy="387.4" r="4.8"/> <circle cx="1228.8" cy="405.9" r="4.8"/> <circle cx="1229.9" cy="426.4" r="5"/> <circle cx="1225.9" cy="415.1" r="4.9"/> <circle cx="1300.9" cy="424" r="5.1"/> <circle cx="1292.8" cy="407.9" r="5.7"/> <circle cx="1259.3" cy="429.9" r="4.8"/> <circle cx="1275.3" cy="423.2" r="4.8"/> <circle cx="1244.5" cy="420.9" r="4.8"/> <circle cx="1285.3" cy="415.7" r="4.8"/> <circle cx="1215.9" cy="416.8" r="5.3"/> <circle cx="1315.2" cy="419.5" r="4.9"/> <circle cx="1235.4" cy="385.8" r="4.8"/> <circle cx="1239.1" cy="409.9" r="5.1"/> <circle cx="1281.1" cy="400.6" r="4.7"/> <circle cx="1265" cy="394.1" r="4.8"/> <circle cx="1255" cy="414.7" r="4.7"/> <circle cx="1325.2" cy="410.4" r="4.8"/> <circle cx="1249.7" cy="431.9" r="4.9"/> <circle cx="1288.7" cy="425.4" r="4.8"/> <circle cx="1273.2" cy="434.1" r="4.9"/> <circle cx="1302.8" cy="410.9" r="4.7"/> <circle cx="1239" cy="429.7" r="4.7"/> <circle cx="1229.2" cy="393.2" r="4.8"/> <circle cx="1276.8" cy="411.2" r="4.8"/> <circle cx="1219.4" cy="407" r="4.7"/> <circle cx="1261.5" cy="403.9" r="3.2"/> <circle cx="1206.9" cy="414.7" r="3.9"/> <circle cx="1275.8" cy="394.8" r="3.2"/> <circle cx="1267.8" cy="427.1" r="3.4"/> <circle cx="1245.1" cy="396.4" r="3.2"/> <circle cx="1300.5" cy="402.3" r="3.8"/> <circle cx="1254.8" cy="395.4" r="3.9"/> <circle cx="1289.3" cy="398.1" r="3.7"/> <circle cx="1282" cy="434.6" r="3.3"/> <circle cx="1247.3" cy="410.7" r="3.2"/> <circle cx="1262.9" cy="422.7" r="3.2"/> <circle cx="1295.3" cy="430.1" r="3.2"/> <circle cx="1221.6" cy="423.7" r="3.6"/> <circle cx="1243.8" cy="382.9" r="3.2"/> <circle cx="1236.2" cy="420.4" r="3.4"/> <circle cx="1242.1" cy="390.3" r="3.2"/> <circle cx="1251.9" cy="423.8" r="3.2"/> <circle cx="1293.7" cy="417.8" r="3.9"/> <circle cx="1266.6" cy="436.2" r="2.1"/> <circle cx="1261.1" cy="387.5" r="2.9"/> <circle cx="1309.5" cy="415.3" r="2.2"/> <circle cx="1281.5" cy="429.3" r="2.1"/> <circle cx="1225.5" cy="399.3" r="2.3"/> <circle cx="1243.6" cy="404.1" r="2.2"/> <circle cx="1295.6" cy="397.5" r="2.6"/> <circle cx="1309.4" cy="402" r="2.1"/> <circle cx="1308.2" cy="420.2" r="2.1"/> <circle cx="1290.7" cy="433.2" r="2.3"/> <circle cx="1269.5" cy="388.8" r="2.1"/> <circle cx="1282.3" cy="392.9" r="2.5"/> <circle cx="1221.2" cy="397.9" r="2.1"/> <circle cx="1331.9" cy="408.9" r="2.1"/> <circle cx="1282.1" cy="421.7" r="2.1"/> <circle cx="1309.3" cy="424.5" r="2.3"/> <circle cx="1210.5" cy="409.7" r="2.3"/> <circle cx="1233.1" cy="414.8" r="2.4"/> <circle cx="519.9" cy="398.2" r="5.3"/> <circle cx="547.5" cy="392.5" r="5"/> <circle cx="584.7" cy="400.5" r="5"/> <circle cx="520.1" cy="415.1" r="5"/> <circle cx="507" cy="400.9" r="4.8"/> <circle cx="564.2" cy="398.1" r="4.8"/> <circle cx="534.5" cy="404.6" r="5.4"/> <circle cx="526.1" cy="430.7" r="4.9"/> <circle cx="584.4" cy="414.7" r="5"/> <circle cx="533.8" cy="393.5" r="5.5"/> <circle cx="564.8" cy="420.6" r="5.4"/> <circle cx="492.4" cy="414.2" r="5.2"/> <circle cx="561.4" cy="432.4" r="5.2"/> <circle cx="497.6" cy="404.5" r="5.2"/> <circle cx="502.4" cy="417" r="4.8"/> <circle cx="551.2" cy="428.3" r="4.9"/> <circle cx="569.2" cy="409.8" r="4.9"/> <circle cx="539.3" cy="418.7" r="4.9"/> <circle cx="575.6" cy="393" r="6"/> <circle cx="592" cy="406.9" r="4.7"/> <circle cx="550.3" cy="407.8" r="5.1"/> <circle cx="541.9" cy="433" r="5"/> <circle cx="560.8" cy="385" r="4.8"/> <circle cx="575.3" cy="422.7" r="5"/> <circle cx="482.1" cy="409.1" r="5"/> <circle cx="570.4" cy="381.9" r="4.8"/> <circle cx="530.4" cy="414.2" r="4.9"/> <circle cx="594.1" cy="418.9" r="4.9"/> <circle cx="555.7" cy="416" r="4.7"/> <circle cx="514.8" cy="428.1" r="4.9"/> <circle cx="514.9" cy="406.9" r="4.7"/> <circle cx="543.4" cy="400.3" r="3.8"/> <circle cx="570.1" cy="429.2" r="3.3"/> <circle cx="510.5" cy="413.6" r="3.3"/> <circle cx="533.9" cy="428.9" r="3.2"/> <circle cx="576.4" cy="413.3" r="3.2"/> <circle cx="528.6" cy="422.8" r="3.4"/> <circle cx="489.3" cy="405.4" r="3.2"/> <circle cx="555.7" cy="395.6" r="3.3"/> <circle cx="560.8" cy="406.1" r="4"/> <circle cx="495.2" cy="423.2" r="3.2"/> <circle cx="541.5" cy="409.5" r="3.2"/> <circle cx="575.2" cy="404" r="3.5"/> <circle cx="566.9" cy="390.1" r="3.2"/> <circle cx="584.2" cy="423.5" r="3.8"/> <circle cx="524.1" cy="405.8" r="3.4"/> <circle cx="552.8" cy="386.2" r="3.2"/> <circle cx="546.9" cy="421.5" r="3.2"/> <circle cx="509.3" cy="420.9" r="3.2"/> <circle cx="500.9" cy="426.1" r="3.2"/> <circle cx="521.6" cy="423.8" r="3.2"/> <circle cx="569.3" cy="402.7" r="2.1"/> <circle cx="507" cy="408.1" r="2.3"/> <circle cx="507.3" cy="427.5" r="2.6"/> <circle cx="545.2" cy="414.5" r="2.3"/> <circle cx="598.1" cy="410.2" r="2.2"/> <circle cx="604.1" cy="416.8" r="2.3"/> <circle cx="551.1" cy="398.6" r="2.1"/> <circle cx="550.7" cy="437.2" r="3"/> <circle cx="600" cy="415.1" r="2.1"/> <circle cx="571.5" cy="416.7" r="2.1"/> <circle cx="556.6" cy="423.1" r="2.4"/> <circle cx="530.6" cy="436.2" r="2.2"/> <circle cx="562.3" cy="413.2" r="2.4"/> <circle cx="540.1" cy="388.4" r="2.4"/> <circle cx="489.6" cy="421" r="2.1"/> <circle cx="557.9" cy="400.8" r="2.1"/> <circle cx="543" cy="425.9" r="2.1"/> <circle cx="502.9" cy="409.7" r="2.1"/> <circle cx="626.9" cy="464.5" r="10.9"/> <circle cx="722.6" cy="458.6" r="10"/> <circle cx="669.4" cy="461.7" r="10.2"/> <circle cx="744.3" cy="472.8" r="9.7"/> <circle cx="792.8" cy="470.1" r="9.9"/> <circle cx="633.9" cy="441.4" r="9.8"/> <circle cx="808.7" cy="483.3" r="9.7"/> <circle cx="653.3" cy="448.2" r="9.7"/> <circle cx="840.1" cy="499.8" r="10.4"/> <circle cx="603.7" cy="460.6" r="10.5"/> <circle cx="701.9" cy="452.6" r="11"/> <circle cx="747.5" cy="453" r="10"/> <circle cx="648" cy="470.7" r="10"/> <circle cx="614.5" cy="442.1" r="9.6"/> <circle cx="770.8" cy="472.5" r="10.2"/> <circle cx="690.8" cy="469.9" r="9.6"/> <circle cx="831.2" cy="481.8" r="9.6"/> <circle cx="779.7" cy="452.8" r="9.7"/> <circle cx="709.4" cy="471.8" r="7.7"/> <circle cx="798.1" cy="452.3" r="7.9"/> <circle cx="596.9" cy="445.1" r="6.4"/> <circle cx="813.8" cy="463.6" r="7.8"/> <circle cx="682.3" cy="450.4" r="6.9"/> <circle cx="850.2" cy="518.1" r="6.9"/> <circle cx="586.5" cy="453.3" r="6.8"/> <circle cx="763.3" cy="457.6" r="6.4"/> <circle cx="723.2" cy="475" r="6.4"/> <circle cx="819.4" cy="474.4" r="4.3"/> <circle cx="638.6" cy="454.8" r="4.3"/> <circle cx="667.2" cy="447.3" r="4.3"/> <circle cx="821.4" cy="496" r="5"/> <circle cx="661.9" cy="474.1" r="4.3"/> <circle cx="791.1" cy="484.2" r="4.3"/> <circle cx="756.5" cy="479.6" r="4.3"/> <circle cx="855.5" cy="528" r="4.3"/> <circle cx="782.3" cy="482.2" r="4.3"/> <circle cx="673.9" cy="476.9" r="5.5"/> <circle cx="1131.5" cy="462.6" r="9.8"/> <circle cx="1093.7" cy="453.2" r="10.2"/> <circle cx="1004.9" cy="470" r="10.1"/> <circle cx="992.3" cy="485.6" r="9.9"/> <circle cx="1182.7" cy="439.3" r="9.7"/> <circle cx="1218.4" cy="451.3" r="10.2"/> <circle cx="1042.2" cy="466.9" r="11.4"/> <circle cx="1156.2" cy="457" r="9.9"/> <circle cx="1181.4" cy="469.6" r="9.8"/> <circle cx="1072" cy="457.5" r="11.9"/> <circle cx="1104.7" cy="471.6" r="10.2"/> <circle cx="967.4" cy="488.3" r="10.2"/> <circle cx="1023.3" cy="455.8" r="9.8"/> <circle cx="1197.7" cy="456.4" r="10.5"/> <circle cx="985.6" cy="465.9" r="9.6"/> <circle cx="1113.5" cy="452.7" r="9.6"/> <circle cx="1164.1" cy="441.6" r="6.7"/> <circle cx="1003.4" cy="452.5" r="7"/> <circle cx="1025.7" cy="477.3" r="7.5"/> <circle cx="1143.9" cy="473" r="6.4"/> <circle cx="1198.8" cy="438.8" r="6.4"/> <circle cx="958.5" cy="510.2" r="6.9"/> <circle cx="1051.3" cy="449" r="7.4"/> <circle cx="1171.8" cy="452.2" r="6.4"/> <circle cx="1161.2" cy="475" r="6.7"/> <circle cx="1066.6" cy="475.5" r="6.8"/> <circle cx="1087" cy="470.4" r="7.6"/> <circle cx="1142.5" cy="447" r="7.1"/> <circle cx="1053.1" cy="478.3" r="4.3"/> <circle cx="971.7" cy="503.7" r="5"/> <circle cx="1122.6" cy="477.6" r="4.4"/> <circle cx="1034.2" cy="446.9" r="4.3"/> <circle cx="1167.8" cy="465.6" r="4.4"/> <circle cx="1130.2" cy="448.2" r="4.7"/> <circle cx="983.7" cy="497.5" r="4.3"/> <circle cx="951.2" cy="520.7" r="4.3"/> <circle cx="947.3" cy="530.7" r="2.3"/> <circle cx="1182.9" cy="455.6" r="4.3"/> <circle cx="1077.6" cy="477.9" r="4.4"/> <circle cx="1057.9" cy="467.2" r="4.3"/> <circle cx="1014.9" cy="481.8" r="4.3"/> <circle cx="907" cy="286.3" r="8.7"/> <circle cx="913.1" cy="380.8" r="8.7"/> <circle cx="890.4" cy="378.5" r="8.2"/> <circle cx="899.2" cy="496.7" r="8.2"/> <circle cx="902.5" cy="531.2" r="8"/> <circle cx="918.1" cy="447.1" r="7.7"/> <circle cx="892" cy="554" r="7.8"/> <circle cx="910.4" cy="430.4" r="8"/> <circle cx="918.6" cy="560.4" r="9.5"/> <circle cx="916.8" cy="309.9" r="8"/> <circle cx="903.3" cy="665.4" r="7.8"/> <circle cx="894.5" cy="629.2" r="7.7"/> <circle cx="892.2" cy="320.5" r="8.1"/> <circle cx="893.6" cy="586" r="8"/> <circle cx="913.8" cy="399.1" r="7.7"/> <circle cx="889.4" cy="521.3" r="8.4"/> <circle cx="908.1" cy="341.3" r="7.5"/> <circle cx="897.9" cy="441.8" r="8.1"/> <circle cx="907.9" cy="618.8" r="8.3"/> <circle cx="913.5" cy="516.8" r="8.8"/> <circle cx="892" cy="649.4" r="7.6"/> <circle cx="884.8" cy="456.5" r="7.7"/> <circle cx="888.5" cy="428.6" r="7.7"/> <circle cx="921.6" cy="334.9" r="7.4"/> <circle cx="918" cy="592.1" r="9.3"/> <circle cx="889.8" cy="472.9" r="8.8"/> <circle cx="920.4" cy="468" r="8"/> <circle cx="889.4" cy="399.6" r="8.5"/> <circle cx="911.1" cy="544.4" r="7.6"/> <circle cx="904.1" cy="480.6" r="7.5"/> <circle cx="919.5" cy="365.8" r="7.6"/> <circle cx="913.7" cy="641.8" r="7.6"/> <circle cx="900.5" cy="361.7" r="7.5"/> <circle cx="886.2" cy="357.4" r="7.4"/> <circle cx="890.2" cy="301.5" r="9"/> <circle cx="922.8" cy="283.5" r="7.4"/> <circle cx="921.4" cy="626.9" r="7.4"/> <circle cx="892.7" cy="336" r="7.4"/> <circle cx="886.7" cy="285.4" r="7.4"/> <circle cx="919" cy="413.3" r="7.4"/> <circle cx="920.4" cy="662.8" r="7.9"/> <circle cx="919.7" cy="491.1" r="8.1"/> <circle cx="907.2" cy="575" r="9.1"/> <circle cx="902.3" cy="462.6" r="7.4"/> <circle cx="897.1" cy="413.6" r="7.4"/> <circle cx="887.3" cy="611.2" r="8.1"/> <circle cx="887.7" cy="539.5" r="7.4"/> <circle cx="899.7" cy="600.2" r="7.4"/> <circle cx="885.1" cy="570.5" r="7.9"/> <circle cx="886.1" cy="678.4" r="5.2"/> <circle cx="883.2" cy="502.8" r="6"/> <circle cx="910.6" cy="654.3" r="5"/> <circle cx="915.5" cy="530.4" r="5"/> <circle cx="900.3" cy="388.6" r="5.9"/> <circle cx="924.4" cy="573.9" r="5.3"/> <circle cx="923.9" cy="503.7" r="5.2"/> <circle cx="883" cy="442.5" r="5.9"/> <circle cx="883.5" cy="344.8" r="5.3"/> <circle cx="919.8" cy="606.2" r="5"/> <circle cx="883.2" cy="417.1" r="5"/> <circle cx="884.1" cy="636.3" r="5"/> <circle cx="912.6" cy="674.6" r="5.3"/> <circle cx="904.7" cy="556.2" r="5"/> <circle cx="909.5" cy="323.9" r="6.1"/> <circle cx="893.3" cy="508.4" r="5"/> <circle cx="917.4" cy="296.3" r="5.7"/> <circle cx="924.1" cy="546.5" r="5.1"/> <circle cx="883.3" cy="598.8" r="5"/> <circle cx="903" cy="308.7" r="5.8"/> <circle cx="883.6" cy="490.5" r="6.3"/> <circle cx="903.6" cy="298" r="3.5"/> <circle cx="902.5" cy="374.2" r="3.9"/> <circle cx="881.4" cy="646.8" r="3.3"/> <circle cx="881.7" cy="668" r="4.1"/> <circle cx="923.9" cy="351.5" r="4.7"/> <circle cx="926.3" cy="316" r="3.3"/> <circle cx="906" cy="587.9" r="3.4"/> <circle cx="920.6" cy="435.5" r="3.3"/> <circle cx="919.1" cy="323.2" r="3.6"/> <circle cx="892.7" cy="662.1" r="3.3"/> <circle cx="911" cy="455.9" r="3.6"/> <circle cx="926.2" cy="324.8" r="3.6"/> <circle cx="924.6" cy="384.4" r="3.3"/> <circle cx="926.4" cy="424.3" r="3.7"/> <circle cx="922.4" cy="480" r="3.3"/> <circle cx="892.9" cy="673.3" r="3.3"/> <circle cx="922.8" cy="457" r="3.3"/> <circle cx="898.7" cy="680.1" r="3.5"/> <circle cx="901" cy="349.5" r="3.3"/> <circle cx="902.8" cy="641.7" r="3.3"/> <circle cx="914" cy="351.3" r="4"/> <circle cx="923.6" cy="651.5" r="3.8"/> <circle cx="902.4" cy="330.2" r="3.3"/> <circle cx="880.4" cy="331.9" r="3.4"/> <circle cx="903.8" cy="451.6" r="3.3"/> <circle cx="897.4" cy="566.1" r="4.1"/> <circle cx="925.9" cy="512" r="3.4"/> <circle cx="924.4" cy="395.4" r="3.5"/> <circle cx="907.8" cy="505.7" r="3.7"/> <circle cx="926" cy="525" r="3.9"/> <circle cx="881.6" cy="385.9" r="3.3"/> <circle cx="882.3" cy="314.3" r="3.5"/> <circle cx="908.6" cy="417.5" r="3.7"/> <circle cx="920.6" cy="538.8" r="3.3"/> <circle cx="880.5" cy="324.2" r="3.5"/> <circle cx="881" cy="657.9" r="3.4"/> <circle cx="918.7" cy="345.4" r="3.3"/> <circle cx="962.8" cy="978.1" r="21"/> <circle cx="832.8" cy="1045.6" r="21.1"/> <circle cx="1115" cy="673" r="20.9"/> <circle cx="871.3" cy="736.6" r="20.7"/> <circle cx="747.9" cy="879.6" r="20.8"/> <circle cx="905.2" cy="852.4" r="21.7"/> <circle cx="1046.9" cy="685" r="21.3"/> <circle cx="1084.6" cy="540.7" r="20.7"/> <circle cx="877.9" cy="1013.9" r="20.9"/> <circle cx="1035.5" cy="940.5" r="20.8"/> <circle cx="1171.6" cy="548.5" r="21.2"/> <circle cx="988.3" cy="1049.9" r="21"/> <circle cx="906.9" cy="897.8" r="20.7"/> <circle cx="1178.5" cy="631.8" r="21.5"/> <circle cx="1054.3" cy="842.2" r="21"/> <circle cx="1005.6" cy="696.9" r="21.5"/> <circle cx="1022.2" cy="802.4" r="21.1"/> <circle cx="766.8" cy="812.3" r="20.8"/> <circle cx="945.5" cy="722.9" r="20.8"/> <circle cx="794.1" cy="948.5" r="20.8"/> <circle cx="797.1" cy="1112.7" r="21.1"/> <circle cx="810.5" cy="758.5" r="21.6"/> <circle cx="901.9" cy="1097.9" r="21.7"/> <circle cx="1017.5" cy="1152.5" r="20.7"/> <circle cx="1008.3" cy="1093.1" r="21"/> <circle cx="929" cy="1232.9" r="21.2"/> <circle cx="1194.5" cy="589.7" r="21.4"/> <circle cx="902.6" cy="808.6" r="20.8"/> <circle cx="830.8" cy="1206.6" r="21"/> <circle cx="906.2" cy="1142.2" r="20.8"/> <circle cx="1055.9" cy="885.2" r="21"/> <circle cx="989.9" cy="1194.4" r="20.8"/> <circle cx="915.3" cy="990.9" r="20.8"/> <circle cx="889.9" cy="1252.4" r="21.1"/> <circle cx="901.3" cy="1190.7" r="15.1"/> <circle cx="828.7" cy="975.1" r="14.7"/> <circle cx="907.5" cy="746.6" r="14.3"/> <circle cx="797.1" cy="1149.6" r="14"/> <circle cx="1004.9" cy="972.4" r="13.9"/> <circle cx="747.1" cy="843.4" r="14.5"/> <circle cx="959" cy="1210" r="13.8"/> <circle cx="1083.8" cy="694.4" r="14.3"/> <circle cx="975.4" cy="773.6" r="13.8"/> <circle cx="829.4" cy="1298.8" r="14.7"/> <circle cx="796.4" cy="1075.1" r="14"/> <circle cx="906.5" cy="708.5" r="13.9"/> <circle cx="1132.3" cy="532" r="14.1"/> <circle cx="765.8" cy="911.6" r="14.2"/> <circle cx="775.8" cy="777.6" r="13.9"/> <circle cx="898.4" cy="939.6" r="14.1"/> <circle cx="1148.8" cy="656.1" r="13.9"/> <circle cx="846.2" cy="764" r="14.2"/> <circle cx="860" cy="1274.7" r="13.8"/> <circle cx="818.8" cy="1348.3" r="14.6"/> <circle cx="802.2" cy="1185.6" r="14.5"/> <circle cx="1111.2" cy="522.1" r="9.2"/> <circle cx="1051.5" cy="791" r="9.4"/> <circle cx="1067" cy="813.2" r="9.7"/> <circle cx="1055.8" cy="568.5" r="9.4"/> <circle cx="1063.5" cy="919.3" r="12.3"/> <circle cx="976.9" cy="717.8" r="10"/> <circle cx="997.3" cy="531.1" r="10.2"/> <circle cx="821.8" cy="1084.6" r="9.4"/> <circle cx="1074.4" cy="660.3" r="9.6"/> <circle cx="800" cy="791.5" r="10"/> <circle cx="999.2" cy="938" r="9.7"/> <circle cx="1034" cy="579.9" r="9.7"/> <circle cx="800.2" cy="979.6" r="9.3"/> <circle cx="1001.7" cy="552.5" r="9.2"/> <circle cx="910.2" cy="1024.5" r="9.6"/> <circle cx="1029.4" cy="769.9" r="10"/> <circle cx="1030.6" cy="1125.6" r="9.2"/> <circle cx="1013.6" cy="759.1" r="9.2"/> <circle cx="826.2" cy="1391.3" r="9.8"/> <circle cx="993.8" cy="730" r="9.6"/> <circle cx="963.5" cy="694.2" r="9.4"/> <circle cx="847" cy="1010.1" r="10.3"/> <circle cx="820" cy="1373.3" r="9.2"/> <circle cx="1063" cy="516.5" r="9.8"/> <circle cx="976.7" cy="555.6" r="6.7"/> <circle cx="800.6" cy="1049.8" r="6.6"/> <circle cx="890" cy="1071.5" r="7.4"/> <circle cx="835.3" cy="1408.4" r="6.1"/> <circle cx="938.5" cy="1011.7" r="7.9"/> <circle cx="775.3" cy="871.5" r="6.3"/> <circle cx="959" cy="1008.6" r="6.2"/> <circle cx="772.6" cy="1126.9" r="6.7"/> <circle cx="1028.7" cy="896.7" r="8"/> <circle cx="959.1" cy="1053.3" r="6.4"/> <circle cx="1018.2" cy="578.4" r="6.1"/> <circle cx="903.2" cy="1062" r="6.2"/> <circle cx="1148.9" cy="630.2" r="7.1"/> <circle cx="730.8" cy="858.9" r="6.1"/> <circle cx="998.1" cy="1122.6" r="6.8"/> <circle cx="1007.3" cy="924.1" r="6.4"/> <circle cx="812.7" cy="1165.7" r="6.9"/> <circle cx="824.6" cy="783.7" r="6.7"/> <circle cx="776.3" cy="1081.6" r="6.2"/> <circle cx="788.5" cy="908.7" r="6.1"/> <circle cx="1151.7" cy="525.5" r="6.3"/> <circle cx="925.7" cy="1018" r="6.5"/> <circle cx="832.2" cy="950" r="6.3"/> <circle cx="768" cy="956.5" r="6.4"/> <circle cx="814.8" cy="1325.2" r="8"/> <circle cx="1037.6" cy="716.3" r="6.7"/> <circle cx="1028.6" cy="520.9" r="7"/> <circle cx="1029.1" cy="910.9" r="6.1"/> <circle cx="1006.9" cy="774.2" r="7.4"/> <circle cx="861.4" cy="1216.6" r="6.6"/> <circle cx="753.3" cy="929.7" r="7.8"/> <circle cx="871.3" cy="764.4" r="6.5"/> <circle cx="814.5" cy="991.1" r="6.7"/> <circle cx="887.5" cy="916.3" r="6.1"/> <circle cx="784.1" cy="1169.1" r="6.4"/> <circle cx="887.4" cy="878.5" r="6.3"/> <circle cx="1018.3" cy="1066.3" r="7.4"/> <circle cx="859.2" cy="1037.1" r="6.2"/> <circle cx="946.9" cy="1044.2" r="7.4"/> <circle cx="921.1" cy="1119.2" r="6.2"/> <circle cx="1041.3" cy="547.7" r="7.4"/> <circle cx="847.2" cy="1427.3" r="7.4"/> <circle cx="1016.8" cy="538.9" r="6.8"/> <circle cx="756.5" cy="944" r="6.9"/> <circle cx="1060.1" cy="709.1" r="6.1"/> <circle cx="1057.8" cy="542.1" r="6.1"/> <circle cx="990.3" cy="994.2" r="7.3"/> <circle cx="1106.3" cy="644.8" r="7.1"/> <circle cx="828.1" cy="737.1" r="6.1"/> <circle cx="775.6" cy="883.9" r="6.1"/> <circle cx="824.1" cy="1178.2" r="8.2"/> <circle cx="998.5" cy="785.9" r="6.4"/> <circle cx="1024.7" cy="829.9" r="6.4"/> <circle cx="986.7" cy="586" r="7"/> <circle cx="960.4" cy="1040.9" r="6.1"/> <circle cx="775.4" cy="1153.7" r="6.3"/> <circle cx="901.6" cy="1169" r="6.3"/> <circle cx="980.3" cy="732.4" r="4.1"/> <circle cx="856.8" cy="963.1" r="4.2"/> <circle cx="890.3" cy="784" r="4.9"/> <circle cx="1027.9" cy="967" r="6.3"/> <circle cx="1029.2" cy="882.1" r="4.4"/> <circle cx="1008.9" cy="724.5" r="5"/> <circle cx="825.1" cy="1406.1" r="4.2"/> <circle cx="1072.8" cy="573.4" r="4.3"/> <circle cx="1205.2" cy="624" r="4.2"/> <circle cx="1023.7" cy="748.6" r="4.2"/> <circle cx="886.4" cy="716" r="4.9"/> <circle cx="1007" cy="1175" r="4.1"/> <circle cx="1014.4" cy="1055" r="4.6"/> <circle cx="1053.1" cy="551.4" r="4.3"/> <circle cx="921" cy="920.8" r="4.4"/> <circle cx="889" cy="761.2" r="5.2"/> <circle cx="976.5" cy="948.6" r="4.9"/> <circle cx="1080.7" cy="869.8" r="6.2"/> <circle cx="920.9" cy="1077.3" r="4.6"/> <circle cx="990.2" cy="763.5" r="4.1"/> <circle cx="1178.5" cy="657.4" r="4.1"/> <circle cx="838.2" cy="1234.2" r="4.7"/> <circle cx="852.8" cy="1291.4" r="4.4"/> <circle cx="777.7" cy="758.1" r="5"/> <circle cx="853.9" cy="1023.4" r="4.7"/> <circle cx="771.7" cy="934" r="4.6"/> <circle cx="1112.6" cy="536" r="4.7"/> <circle cx="913.6" cy="951.7" r="4.3"/> <circle cx="1096.8" cy="514.5" r="4.3"/> <circle cx="1135.2" cy="644.1" r="4.2"/> <circle cx="1046" cy="773.5" r="6"/> <circle cx="845" cy="741" r="5.6"/> <circle cx="1073.7" cy="673.9" r="4.1"/> <circle cx="989.3" cy="956.3" r="4.1"/> <circle cx="910.4" cy="781.6" r="6.6"/> <circle cx="807.5" cy="1036.2" r="4.5"/> <circle cx="780.2" cy="1143.1" r="4.1"/> <circle cx="920.7" cy="1063.8" r="4.5"/> <circle cx="1021.5" cy="1178.6" r="4.4"/> <circle cx="1135.4" cy="629.4" r="4.3"/> <circle cx="1019.8" cy="527.7" r="4.1"/> <circle cx="987.2" cy="546.4" r="5.6"/> <circle cx="800.7" cy="807.9" r="5.3"/> <circle cx="741.6" cy="812.5" r="4.5"/> <circle cx="850.8" cy="968.8" r="4.1"/> <circle cx="917.4" cy="1259.6" r="4.8"/> <circle cx="921.4" cy="729.4" r="4.1"/> <circle cx="767.6" cy="859.6" r="4.8"/> <circle cx="916.9" cy="937.2" r="4.5"/> <circle cx="920.3" cy="1053.5" r="5.4"/> <circle cx="730.7" cy="899.5" r="4.2"/> <circle cx="993.8" cy="795.9" r="4.6"/> <circle cx="987.4" cy="982.8" r="4.1"/> <circle cx="1022.8" cy="670.6" r="5.7"/> <circle cx="769.5" cy="839.7" r="5.5"/> <circle cx="850.6" cy="1229.8" r="5.6"/> <circle cx="784.4" cy="973" r="4.7"/> <circle cx="869.2" cy="1048.5" r="5.3"/> <circle cx="733.1" cy="825.4" r="5"/> <circle cx="1088.6" cy="653.1" r="4.4"/> <circle cx="1121.5" cy="642" r="5.9"/> <circle cx="768.9" cy="1111.4" r="4.3"/> <circle cx="871.8" cy="1212" r="4.8"/> <circle cx="1035" cy="1098" r="5.3"/> <circle cx="821.2" cy="950.2" r="4.6"/> <circle cx="1093.7" cy="659.9" r="4.1"/> <circle cx="1075.5" cy="906.6" r="5.1"/> <circle cx="1048.7" cy="585.5" r="4.4"/> <circle cx="913.3" cy="725.5" r="4.2"/> <circle cx="1112" cy="547" r="5.2"/> <circle cx="1169.9" cy="597.6" r="4.4"/> <circle cx="863.9" cy="1248.8" r="4.6"/> <circle cx="1003.4" cy="580.8" r="4.1"/> <circle cx="1005.4" cy="587.4" r="2.7"/> <circle cx="836.1" cy="1179.8" r="3.3"/> <circle cx="923.8" cy="876.5" r="3.4"/> <circle cx="736.4" cy="907.4" r="3"/> <circle cx="955.2" cy="1238.6" r="4.7"/> <circle cx="919.4" cy="947.7" r="2.7"/> <circle cx="790.1" cy="802.2" r="2.9"/> <circle cx="1000.6" cy="756.9" r="3.2"/> <circle cx="1056.2" cy="661.4" r="3.1"/> <circle cx="948.6" cy="769" r="3.4"/> <circle cx="900.2" cy="731.1" r="2.7"/> <circle cx="1171.3" cy="577.2" r="4.8"/> <circle cx="1058.6" cy="944.8" r="2.7"/> <circle cx="748.1" cy="798" r="2.7"/> <circle cx="859.4" cy="1434.2" r="3.8"/> <circle cx="811.5" cy="784.3" r="2.8"/> <circle cx="1088.4" cy="677.8" r="2.9"/> <circle cx="1199.4" cy="561" r="3.3"/> <circle cx="1008.9" cy="733.3" r="3"/> <circle cx="856.6" cy="1047.1" r="2.7"/> <circle cx="769.8" cy="1099.2" r="3.7"/> <circle cx="1028.8" cy="851.6" r="3.4"/> <circle cx="973.4" cy="1030.6" r="2.7"/> <circle cx="812.3" cy="968.9" r="2.8"/> <circle cx="994.6" cy="1164.6" r="5.2"/> <circle cx="1171.3" cy="665.9" r="2.9"/> <circle cx="882.1" cy="956.6" r="2.8"/> <circle cx="777.2" cy="1097.5" r="3.9"/> <circle cx="1031" cy="724.4" r="3.7"/> <circle cx="1011.7" cy="673.4" r="2.7"/> <circle cx="906.7" cy="1053.8" r="2.7"/> <circle cx="958.2" cy="742.7" r="2.7"/> <circle cx="894.2" cy="1037.9" r="3.4"/> <circle cx="847.4" cy="725" r="5.9"/> <circle cx="1038.9" cy="910.1" r="3.5"/> <circle cx="740" cy="913.6" r="3.2"/> <circle cx="1050.9" cy="908.4" r="2.7"/> <circle cx="737.3" cy="901.7" r="2.7"/> <circle cx="1047.4" cy="808.9" r="4.7"/> <circle cx="837.8" cy="1278.8" r="4.3"/> <circle cx="878.9" cy="1037.4" r="2.7"/> <circle cx="902.7" cy="726.3" r="2.7"/> <circle cx="722.4" cy="878.5" r="3.1"/> <circle cx="810.1" cy="1364.7" r="3.9"/> <circle cx="791.3" cy="921.5" r="3.2"/> <circle cx="1090.5" cy="564.7" r="3.1"/> <circle cx="1013.9" cy="550" r="2.9"/> <circle cx="1075.5" cy="564.8" r="4.8"/> <circle cx="1012.3" cy="1117.8" r="3.2"/> <circle cx="1072.8" cy="859.4" r="4.2"/> <circle cx="787.1" cy="797.5" r="2.7"/> <circle cx="987.1" cy="1023.5" r="3.8"/> <circle cx="824" cy="993.6" r="3"/> <circle cx="979.3" cy="705.3" r="2.7"/> <circle cx="978" cy="956" r="2.7"/> <circle cx="1089.4" cy="515.2" r="3.1"/> <circle cx="912.4" cy="1055.4" r="2.7"/> <circle cx="1026.9" cy="552.2" r="4.1"/> <circle cx="852.1" cy="1221.6" r="2.7"/> <circle cx="914.1" cy="923.4" r="3"/> <circle cx="922.3" cy="700.8" r="3.6"/> <circle cx="837.9" cy="733.3" r="4.4"/> <circle cx="974.1" cy="1000.1" r="3.5"/> <circle cx="1040.9" cy="822.4" r="2.9"/> <circle cx="747.4" cy="918.2" r="5.2"/> <circle cx="1128.3" cy="636" r="3.1"/> <circle cx="1139.2" cy="516" r="3.2"/> <circle cx="1069.4" cy="713.5" r="4.2"/> <circle cx="763.1" cy="853" r="3.2"/> <circle cx="795.1" cy="813.6" r="2.7"/> <circle cx="1161.7" cy="612.8" r="3.2"/> <circle cx="901.4" cy="784" r="2.7"/> <circle cx="734.1" cy="808.5" r="2.9"/> <circle cx="1063.4" cy="553" r="3.8"/> <circle cx="997.4" cy="1027.6" r="2.9"/> <circle cx="923.1" cy="796.3" r="3.1"/> <circle cx="802.6" cy="1208.3" r="3.2"/> <circle cx="782.2" cy="902.2" r="3"/> <circle cx="785.5" cy="837.9" r="3.3"/> <circle cx="844.4" cy="1187.3" r="2.7"/> <circle cx="1123.8" cy="512.9" r="4"/> <circle cx="828.9" cy="1073.8" r="2.7"/> <circle cx="844.8" cy="981.5" r="2.7"/> <circle cx="898.4" cy="1028" r="2.7"/> <circle cx="1035.5" cy="873.1" r="2.7"/> <circle cx="1008.3" cy="1064.9" r="2.7"/> <circle cx="824.4" cy="1163" r="3"/> <circle cx="759.6" cy="781.2" r="2.7"/> <circle cx="1038.2" cy="523.6" r="3"/> <circle cx="929.3" cy="702" r="3.5"/> <circle cx="1007.3" cy="947.5" r="2.7"/> <circle cx="892.3" cy="722.8" r="4.1"/> <circle cx="864.3" cy="770.4" r="2.7"/> <circle cx="775.1" cy="1136.9" r="3.6"/> <circle cx="1047.2" cy="917.4" r="4.1"/> <circle cx="1018.7" cy="1129" r="2.8"/> <circle cx="923.1" cy="710.1" r="2.7"/> <circle cx="1139.5" cy="636.7" r="3.8"/> <circle cx="851.3" cy="976.4" r="2.8"/> <circle cx="926.4" cy="696" r="2.7"/> <circle cx="888.4" cy="707.8" r="3.5"/> <circle cx="1084.2" cy="857.6" r="2.7"/> <circle cx="1077.3" cy="827.4" r="6.4"/> <circle cx="745.5" cy="824" r="3.5"/> <circle cx="991.1" cy="1155.3" r="4.7"/> <circle cx="869.2" cy="1040.1" r="3.1"/> <circle cx="919.1" cy="832.2" r="2.8"/> <circle cx="1144.5" cy="676" r="5.5"/> <circle cx="859.3" cy="1054" r="4.6"/> <circle cx="1166.5" cy="609.3" r="2.7"/> <circle cx="892" cy="1061.3" r="2.9"/> <circle cx="1016.5" cy="726.3" r="2.7"/> <circle cx="886.1" cy="1129.1" r="3.1"/> <circle cx="935.3" cy="695.1" r="4.7"/> <circle cx="855.7" cy="1208.7" r="3.1"/> <circle cx="977.3" cy="694.7" r="4.5"/> <circle cx="779.4" cy="923.7" r="4"/> <circle cx="995" cy="592.8" r="2.7"/> <circle cx="914.2" cy="1067.1" r="2.7"/> <circle cx="1082.4" cy="516.5" r="2.8"/> <circle cx="979.5" cy="997" r="2.7"/> <circle cx="939.8" cy="961.5" r="2.9"/> <circle cx="992" cy="948.3" r="2.8"/> <circle cx="977.2" cy="1172.5" r="3.7"/> <circle cx="997.9" cy="987.5" r="2.7"/> <circle cx="833.9" cy="1071.2" r="2.9"/> <circle cx="984.2" cy="536.3" r="2.8"/> <circle cx="1145.1" cy="519.1" r="3"/> <circle cx="930" cy="1044" r="3.1"/> <circle cx="1163.4" cy="526.1" r="2.7"/> <circle cx="1193.4" cy="540.5" r="2"/> <circle cx="774.2" cy="897.9" r="1.8"/> <circle cx="997.2" cy="777.8" r="1.8"/> <circle cx="1023.5" cy="975.9" r="3.7"/> <circle cx="925" cy="881.6" r="1.8"/> <circle cx="1015.4" cy="918.5" r="3.3"/> <circle cx="840.4" cy="746.8" r="1.8"/> <circle cx="886.3" cy="951.3" r="2.7"/> <circle cx="972.2" cy="738.6" r="4.8"/> <circle cx="1093.6" cy="519.8" r="1.8"/> <circle cx="921.5" cy="1083.6" r="1.8"/> <circle cx="790.2" cy="1058.1" r="4.1"/> <circle cx="967.7" cy="683.5" r="2.1"/> <circle cx="1090.1" cy="507.7" r="2"/> <circle cx="833.4" cy="1019" r="3.2"/> <circle cx="943.8" cy="771" r="1.8"/> <circle cx="926.6" cy="930.6" r="2.4"/> <circle cx="996.5" cy="580.1" r="2.9"/> <circle cx="808.7" cy="801.3" r="3.2"/> <circle cx="910.2" cy="1176.3" r="1.8"/> <circle cx="787.3" cy="1176.7" r="1.8"/> <circle cx="1067.3" cy="557.1" r="1.9"/> <circle cx="811.3" cy="1031.1" r="1.8"/> <circle cx="946.4" cy="1019.6" r="2"/> <circle cx="785.1" cy="1132.3" r="1.8"/> <circle cx="800.5" cy="779.7" r="1.8"/> <circle cx="776" cy="843.7" r="2.2"/> <circle cx="998.1" cy="1071.9" r="2.6"/> <circle cx="791.2" cy="916.5" r="1.8"/> <circle cx="1079.8" cy="882.2" r="2.4"/> <circle cx="882.8" cy="830.2" r="3.9"/> <circle cx="907.4" cy="726.9" r="1.8"/> <circle cx="1016" cy="1175.7" r="1.8"/> <circle cx="858.5" cy="1204.6" r="1.8"/> <circle cx="804.5" cy="1168.6" r="1.8"/> <circle cx="981.3" cy="1220.3" r="2.1"/> <circle cx="980.5" cy="678.7" r="2.8"/> <circle cx="1067.2" cy="567" r="2.1"/> <circle cx="948" cy="697.6" r="2.4"/> <circle cx="922.3" cy="779.6" r="4"/> <circle cx="1157.8" cy="519.7" r="1.9"/> <circle cx="884.7" cy="990.7" r="2.6"/> <circle cx="921.7" cy="1029.3" r="1.8"/> <circle cx="830.7" cy="1278" r="1.9"/> <circle cx="826.9" cy="1321" r="2.4"/> <circle cx="807.4" cy="925.8" r="3.1"/> <circle cx="776.7" cy="838.7" r="1.8"/> <circle cx="822.6" cy="1103.8" r="1.9"/> <circle cx="765" cy="940.3" r="2.4"/> <circle cx="925.6" cy="784.4" r="1.8"/> <circle cx="1152.7" cy="677.1" r="2.8"/> <circle cx="1059.8" cy="665.7" r="1.9"/> <circle cx="1142.2" cy="641.6" r="1.8"/> <circle cx="923.5" cy="715.4" r="2.5"/> <circle cx="961.6" cy="953.3" r="3.8"/> <circle cx="1129.2" cy="515.8" r="2.1"/> <circle cx="896.7" cy="955.8" r="1.8"/> <circle cx="921.3" cy="756.4" r="2.3"/> <circle cx="1145.4" cy="683.9" r="2.4"/> <circle cx="986.6" cy="1073.1" r="2.3"/> <circle cx="979.9" cy="544.8" r="1.8"/> <circle cx="843" cy="779.7" r="1.8"/> <circle cx="1021" cy="729.2" r="2.7"/> <circle cx="824.2" cy="1097.5" r="2.9"/> <circle cx="931" cy="1024.7" r="2.1"/> <circle cx="895.3" cy="1056.4" r="3"/> <circle cx="811.8" cy="1059.9" r="1.9"/> <circle cx="1145.2" cy="638.4" r="1.8"/> <circle cx="832.8" cy="727.6" r="3.3"/> <circle cx="963.8" cy="1231" r="3.9"/> <circle cx="1010.7" cy="517.1" r="2.6"/> <circle cx="991.1" cy="1109.9" r="2.2"/> <circle cx="1045.5" cy="713.1" r="1.8"/> <circle cx="1195.8" cy="547.7" r="2.1"/> <circle cx="1201.7" cy="628.9" r="1.8"/> <circle cx="814.1" cy="1144.2" r="3.2"/> <circle cx="1083.4" cy="886.7" r="2.7"/> <circle cx="1072.5" cy="682.7" r="1.9"/> <circle cx="1060.1" cy="658.4" r="1.8"/> <circle cx="1064.7" cy="561.8" r="1.8"/> <circle cx="941.6" cy="1051.7" r="1.8"/> <circle cx="888.8" cy="1204.8" r="2.5"/> <circle cx="925.4" cy="749" r="2"/> <circle cx="780.9" cy="1065.2" r="2.6"/> <circle cx="1077.9" cy="897.7" r="4.1"/> <circle cx="906.3" cy="1071.4" r="3.6"/> <circle cx="1026" cy="726.9" r="1.9"/> <circle cx="967.8" cy="726.7" r="1.8"/> <circle cx="885.1" cy="1119.5" r="4.7"/> <circle cx="778.3" cy="891.5" r="2"/> <circle cx="997.3" cy="770.5" r="2.9"/> <circle cx="731" cy="840.2" r="1.8"/> <circle cx="922.6" cy="943.5" r="2.6"/> <circle cx="986.1" cy="560.2" r="1.9"/> <circle cx="1064.8" cy="935.4" r="3.3"/> <circle cx="897.6" cy="759.4" r="1.8"/> <circle cx="1076.5" cy="711.6" r="3.1"/> <circle cx="1105.7" cy="696.8" r="3.4"/> <circle cx="869.3" cy="708.7" r="3.3"/> <circle cx="783" cy="895.1" r="4"/> <circle cx="819.4" cy="1024.4" r="1.9"/> <circle cx="984" cy="939.8" r="5.3"/> <circle cx="1055" cy="580.1" r="2.3"/> <circle cx="1052.9" cy="715.4" r="3.4"/> <circle cx="1080.2" cy="861.7" r="1.8"/> <circle cx="824.3" cy="1073.6" r="1.8"/> <circle cx="948.8" cy="1007.4" r="1.9"/> <circle cx="945.8" cy="1005.2" r="1.8"/> <circle cx="1030.1" cy="1109.5" r="2.8"/> <circle cx="838.1" cy="1022.7" r="2.4"/> <circle cx="986.8" cy="683" r="1.9"/> <circle cx="774.8" cy="893.1" r="1.9"/> <circle cx="1082.3" cy="670.2" r="2.1"/> <circle cx="755.4" cy="791.6" r="2.8"/> <circle cx="941.9" cy="696" r="1.9"/> <circle cx="921.7" cy="1194.9" r="4.3"/> <circle cx="914.7" cy="1167.2" r="4.1"/> <circle cx="1025.2" cy="541.3" r="1.9"/> <circle cx="993.6" cy="1143.1" r="4.5"/> <circle cx="1005.6" cy="956.2" r="2.2"/> <circle cx="1034" cy="757" r="3"/> <circle cx="1029.9" cy="541.9" r="2.9"/> <circle cx="816.1" cy="784.6" r="1.8"/> <circle cx="854.3" cy="1203.1" r="2.6"/> <circle cx="882.8" cy="706.9" r="2.1"/> <circle cx="728.5" cy="830.5" r="1.8"/> <circle cx="863.1" cy="1207.3" r="2.9"/> <circle cx="881.3" cy="790.4" r="3"/> <circle cx="984.2" cy="959.8" r="2.1"/> <circle cx="1015.6" cy="587.6" r="3.4"/> <circle cx="784.4" cy="921" r="1.8"/> <circle cx="1040.4" cy="783.6" r="2.5"/> <circle cx="1052.2" cy="524.8" r="2.4"/> <circle cx="788.8" cy="833" r="2.4"/> <circle cx="939.5" cy="970.1" r="3.6"/> <circle cx="794.5" cy="1166.3" r="3"/> <circle cx="807.7" cy="1060.3" r="2.2"/> <circle cx="1017.7" cy="1186.1" r="3.9"/> <circle cx="1120.7" cy="547" r="3.5"/> <circle cx="774.5" cy="928.2" r="1.8"/> <circle cx="816.8" cy="1026.9" r="1.8"/> <circle cx="891.5" cy="985.7" r="3.5"/> <circle cx="989.3" cy="962.2" r="1.8"/> <circle cx="1036.4" cy="559" r="2.3"/> <circle cx="880.7" cy="988.6" r="1.8"/> <circle cx="839.3" cy="955.8" r="2.9"/> <circle cx="834" cy="1400.5" r="1.8"/> <circle cx="828.4" cy="1020.7" r="2.1"/> <circle cx="932.9" cy="975.4" r="2.6"/> <circle cx="829.7" cy="1380" r="2"/> <circle cx="940.6" cy="1205.1" r="2.8"/> <circle cx="1033.8" cy="853.3" r="1.8"/> <circle cx="885.8" cy="1209.1" r="2.8"/> <circle cx="1012.9" cy="951.9" r="4.4"/> <circle cx="806.2" cy="1056" r="1.8"/> <circle cx="957.4" cy="1228.7" r="2.9"/> <circle cx="774.3" cy="1090.7" r="3.2"/> <circle cx="801.8" cy="921.2" r="3.6"/> <circle cx="927.1" cy="920.6" r="1.8"/> <circle cx="882.8" cy="764.6" r="1.8"/> <circle cx="983" cy="685.4" r="2.7"/> <circle cx="1044.5" cy="782.2" r="1.8"/> <circle cx="1041.7" cy="558.1" r="3.1"/> <circle cx="937.7" cy="997.4" r="2.5"/> <circle cx="883.2" cy="796.3" r="2.1"/> <circle cx="862" cy="994.7" r="3.8"/> <circle cx="783.2" cy="881.2" r="1.2"/> <circle cx="1213.7" cy="576.6" r="1.9"/> <circle cx="865.7" cy="1441.8" r="2"/> <circle cx="1211" cy="564.3" r="2.2"/> <circle cx="1028" cy="719.3" r="2.2"/> <circle cx="809.7" cy="1082.5" r="1.2"/> <circle cx="983.1" cy="987.3" r="1.3"/> <circle cx="1012.3" cy="1130.1" r="2.3"/> <circle cx="1103.6" cy="701" r="1.2"/> <circle cx="953.6" cy="1013.7" r="1.2"/> <circle cx="771.4" cy="949.4" r="1.5"/> <circle cx="890.9" cy="1176.8" r="2.3"/> <circle cx="1017.2" cy="911.3" r="4.2"/> <circle cx="927.5" cy="914.5" r="1.6"/> <circle cx="780.9" cy="795.3" r="1.2"/> <circle cx="1058.8" cy="937.5" r="1.8"/> <circle cx="1215.2" cy="610.8" r="1.7"/> <circle cx="883.9" cy="1169.5" r="3"/> <circle cx="1018.4" cy="958.5" r="4"/> <circle cx="907.4" cy="1224.9" r="1.8"/> <circle cx="891.4" cy="872.2" r="1.2"/> <circle cx="787.6" cy="1134.1" r="1.2"/> <circle cx="1085.5" cy="669.1" r="1.2"/> <circle cx="800.7" cy="1090.3" r="1.6"/> <circle cx="866.7" cy="964.6" r="5.5"/> <circle cx="886.7" cy="1199.2" r="1.9"/> <circle cx="951.7" cy="700.7" r="2.3"/> <circle cx="976.4" cy="941.2" r="1.9"/> <circle cx="974.4" cy="1178.7" r="1.2"/> <circle cx="1149.2" cy="671.2" r="1.2"/> <circle cx="950.6" cy="695.2" r="1.2"/> <circle cx="769.9" cy="1137.6" r="1.7"/> <circle cx="977.8" cy="682" r="1.5"/> <circle cx="853.7" cy="1217" r="1.2"/> <circle cx="1049.2" cy="509.1" r="1.3"/> <circle cx="973.1" cy="1004.9" r="1.3"/> <circle cx="782.8" cy="1159.3" r="3"/> <circle cx="1163.9" cy="665.4" r="3.5"/> <circle cx="1006.8" cy="520.6" r="2.6"/> <circle cx="989.3" cy="675.3" r="1.6"/> <circle cx="823.4" cy="1321.9" r="1.2"/> <circle cx="1003.9" cy="1128.7" r="1.7"/> <circle cx="781.5" cy="906.5" r="1.2"/> <circle cx="1210.1" cy="560.1" r="1.7"/> <circle cx="724.4" cy="873.4" r="2.4"/> <circle cx="984.4" cy="952.9" r="1.9"/> <circle cx="1020.9" cy="715.1" r="2.2"/> <circle cx="915.9" cy="828.4" r="2.2"/> <circle cx="1051.3" cy="507.8" r="1.2"/> <circle cx="1017.3" cy="547.8" r="1.2"/> <circle cx="946.7" cy="687" r="2.7"/> <circle cx="882" cy="897.9" r="3.1"/> <circle cx="875.9" cy="987.5" r="3.2"/> <circle cx="882.1" cy="1215.4" r="3.5"/> <circle cx="1022.8" cy="1111.8" r="2.7"/> <circle cx="792.8" cy="1043.1" r="1.6"/> <circle cx="1001.6" cy="1067.7" r="1.2"/> <circle cx="815" cy="1156.9" r="2.3"/> <circle cx="1123.4" cy="632" r="1.5"/> <circle cx="831.7" cy="1327.5" r="3.9"/> <circle cx="787" cy="1180.2" r="1.6"/> <circle cx="1168.3" cy="572" r="1.2"/> <circle cx="1027.5" cy="713.6" r="1.2"/> <circle cx="959.8" cy="775.8" r="1.9"/> <circle cx="1104.6" cy="509.9" r="3.3"/> <circle cx="1039.8" cy="1130.8" r="1.3"/> <circle cx="813.5" cy="1139.8" r="1.2"/> <circle cx="767.7" cy="1119.4" r="2.3"/> <circle cx="827.1" cy="1325.3" r="1.2"/> <circle cx="1080.3" cy="857.3" r="1.2"/> <circle cx="832.8" cy="778.1" r="3.2"/> <circle cx="1040.1" cy="815.7" r="1.2"/> <circle cx="968.6" cy="949.4" r="3"/> <circle cx="780" cy="1093.1" r="1.4"/> <circle cx="1093.9" cy="706.2" r="1.2"/> <circle cx="784.7" cy="886.8" r="1.3"/> <circle cx="1004" cy="1116.2" r="1.9"/> <circle cx="1195.3" cy="615.6" r="1.8"/> <circle cx="1017.1" cy="558.6" r="2.7"/> <circle cx="735.7" cy="912.8" r="1.2"/> <circle cx="819.7" cy="1099.3" r="2"/> <circle cx="922.9" cy="751" r="1.2"/> <circle cx="753.2" cy="785.6" r="3.3"/> <circle cx="1014.7" cy="1046.8" r="2"/> <circle cx="1010.3" cy="587.7" r="1.9"/> <circle cx="1145.9" cy="552.2" r="4.7"/> <circle cx="973.5" cy="1227.2" r="5.5"/> <circle cx="770.1" cy="1147" r="2.3"/> <circle cx="883.2" cy="756" r="2.1"/> <circle cx="1062.3" cy="790.7" r="1.4"/> <circle cx="1052.5" cy="657.7" r="1.4"/> <circle cx="1043.4" cy="911.8" r="1.2"/> <circle cx="879" cy="1042.8" r="2.6"/> <circle cx="1018.9" cy="965.3" r="1.7"/> <circle cx="828.9" cy="943.2" r="1.2"/> <circle cx="767.5" cy="849.7" r="2.3"/> <circle cx="853.1" cy="1256.9" r="1.6"/> <circle cx="960.1" cy="1234.6" r="1.2"/> <circle cx="824.8" cy="1328.3" r="1.9"/> <circle cx="971.5" cy="732.7" r="1.2"/> <circle cx="1015" cy="1114.3" r="1.2"/> <circle cx="820.7" cy="793.8" r="3.8"/> <circle cx="926.6" cy="823.3" r="2.9"/> <circle cx="824.6" cy="1331.5" r="1.2"/> <circle cx="819.5" cy="1095.3" r="1.6"/> <circle cx="788.3" cy="763.8" r="1.2"/> <circle cx="1167.4" cy="668.6" r="1.2"/> <circle cx="804.5" cy="992.4" r="1.9"/> <circle cx="893.7" cy="955.3" r="1.2"/> <circle cx="1120.1" cy="635" r="1.2"/> <circle cx="842.2" cy="1275.5" r="1.2"/> <circle cx="927" cy="939.4" r="1.9"/> <circle cx="1022.2" cy="680" r="2.2"/> <circle cx="1191" cy="567.4" r="1.2"/> <circle cx="916" cy="1172.3" r="1.2"/> <circle cx="959.6" cy="703.9" r="1.2"/> <circle cx="888.3" cy="928" r="1.2"/> <circle cx="741.1" cy="919.4" r="1.3"/> <circle cx="924.6" cy="810.3" r="1.2"/> <circle cx="857.8" cy="1059.7" r="1.2"/> <circle cx="784.4" cy="827.2" r="2.2"/> <circle cx="911.2" cy="1060.5" r="2"/> <circle cx="887.9" cy="1040.1" r="1.5"/> <circle cx="883.4" cy="825.1" r="1.2"/> <circle cx="970.7" cy="1178.2" r="1.6"/> <circle cx="833.4" cy="1014.6" r="1.2"/> <circle cx="1049.2" cy="517.7" r="4"/> <circle cx="882.7" cy="858.2" r="1.5"/> <circle cx="868.3" cy="1262.2" r="1.2"/> <circle cx="991.3" cy="779.3" r="3.1"/> <circle cx="1036.6" cy="590.6" r="1.3"/> <circle cx="1044.1" cy="817.7" r="2.7"/> <circle cx="1078.5" cy="517.8" r="1.2"/> <circle cx="1194.3" cy="544.7" r="1.2"/> <circle cx="962.4" cy="738.6" r="2.3"/> <circle cx="748.1" cy="793.7" r="1.6"/> <circle cx="834.6" cy="1075.3" r="1.2"/> <circle cx="967.4" cy="730" r="1.5"/> <circle cx="816.3" cy="953.5" r="1.3"/> <circle cx="1056.7" cy="907.6" r="1.2"/> <circle cx="934.4" cy="1044.2" r="1.3"/> <circle cx="882.1" cy="904.2" r="3.1"/> <circle cx="1040.4" cy="867.1" r="2.8"/> <circle cx="780.4" cy="931.2" r="1.2"/> <circle cx="1027.6" cy="1066.9" r="1.9"/> <circle cx="780.3" cy="1088.7" r="2"/> <circle cx="808.9" cy="1372.1" r="1.9"/> <circle cx="980.5" cy="534.7" r="1.2"/> <circle cx="1195.4" cy="563" r="1.2"/> <circle cx="766.2" cy="1131.5" r="1.2"/> <circle cx="886.4" cy="1183" r="1.8"/> <circle cx="913.9" cy="932.1" r="1.4"/> <circle cx="924.7" cy="867.8" r="3.1"/> <circle cx="1028" cy="704.1" r="1.9"/> <circle cx="1105.7" cy="547.6" r="1.2"/> <circle cx="796.7" cy="917.8" r="1.4"/> <circle cx="1053.1" cy="819.8" r="1.4"/> <circle cx="1190.7" cy="612.2" r="1.5"/> <circle cx="971" cy="702.8" r="2"/> <circle cx="971.3" cy="1033.9" r="1.2"/> <circle cx="921.4" cy="1111.6" r="1.4"/> <circle cx="1033.7" cy="1107.8" r="1.2"/> <circle cx="840.2" cy="1271.1" r="3.6"/> <circle cx="762.2" cy="786.8" r="2.5"/> <circle cx="853.9" cy="1435.7" r="1.9"/> <circle cx="852.8" cy="1259.7" r="1.2"/> <circle cx="1126.6" cy="649.7" r="3.4"/> <circle cx="845.8" cy="974.9" r="2.5"/> <circle cx="949.7" cy="692.3" r="1.8"/> <circle cx="902.7" cy="921.2" r="3.1"/> <circle cx="1210.2" cy="606.3" r="1.5"/> <circle cx="1067.4" cy="574.6" r="1.2"/> <circle cx="865.2" cy="1289.6" r="1.7"/> <circle cx="1139.9" cy="685.8" r="3.3"/> <circle cx="1091.5" cy="672.7" r="2.6"/> <circle cx="1076.5" cy="679.4" r="2.1"/> <circle cx="1135.1" cy="685.9" r="1.5"/> <circle cx="924.4" cy="738.8" r="4.3"/> <circle cx="895.5" cy="1175.3" r="1.4"/> <circle cx="1117.5" cy="510" r="1.9"/> <circle cx="820.4" cy="1020.7" r="1.9"/> <circle cx="991.6" cy="556" r="1.5"/> <circle cx="974.3" cy="705.6" r="2.3"/> <circle cx="809.6" cy="1045.4" r="2.1"/> <circle cx="925" cy="1174.5" r="1.5"/> <circle cx="1035.4" cy="967.1" r="1.2"/> <circle cx="892.1" cy="743.4" r="1.2"/> <circle cx="998.8" cy="1137.6" r="3.1"/> <circle cx="860.5" cy="971.6" r="4"/> <circle cx="853.9" cy="1031.9" r="1.2"/> <circle cx="1061.5" cy="938.8" r="1.2"/> <circle cx="968.9" cy="559.2" r="1.8"/> <circle cx="1005.8" cy="1120.4" r="1.2"/> <circle cx="772.9" cy="1143.7" r="2"/> <circle cx="889.2" cy="1036" r="2"/> <circle cx="1098.7" cy="652.5" r="3.8"/> <circle cx="865.3" cy="1224.2" r="1.9"/> <circle cx="1083.4" cy="882.1" r="1.2"/> <circle cx="882.8" cy="890.6" r="3.9"/> <circle cx="843.3" cy="1408.8" r="1.7"/> <circle cx="996.2" cy="757.5" r="1.2"/> <circle cx="1037.7" cy="914.7" r="1.2"/> <circle cx="996.2" cy="925.7" r="1.3"/> <circle cx="1024.9" cy="547.3" r="1.2"/> <circle cx="881.8" cy="1278.3" r="2.1"/> <circle cx="823.3" cy="1317" r="3"/> <circle cx="1033.6" cy="885.5" r="1.2"/> <circle cx="1149" cy="538.7" r="3.4"/> <circle cx="782.1" cy="912.5" r="1.3"/> <circle cx="894.9" cy="959.2" r="2.1"/> <circle cx="794.4" cy="916.7" r="1.2"/> <circle cx="769" cy="945" r="3.5"/> <circle cx="927.6" cy="857.3" r="1.2"/> <circle cx="933.5" cy="689.4" r="1.2"/> <circle cx="976.9" cy="545.5" r="1.3"/> <circle cx="1079.9" cy="854.5" r="1.6"/> <circle cx="787.1" cy="919.3" r="1.3"/> <circle cx="1004.7" cy="951" r="1.7"/> <circle cx="781.4" cy="1137.4" r="1.7"/> <circle cx="978.1" cy="1219.8" r="1.2"/> <circle cx="882.2" cy="1063.8" r="2.2"/> <circle cx="740" cy="922.4" r="2"/> <circle cx="1012.9" cy="1174.6" r="1.5"/> <circle cx="989.3" cy="1149.2" r="1.7"/> <circle cx="1032.8" cy="847.7" r="1.2"/> <circle cx="999.6" cy="592.7" r="1.9"/> <circle cx="890.5" cy="1040.8" r="1.2"/> <circle cx="903.3" cy="1230.6" r="4.5"/> <circle cx="803.1" cy="1343.8" r="1.3"/> <circle cx="851" cy="980.4" r="1.2"/> <circle cx="932.2" cy="963.3" r="1.6"/> <circle cx="986.3" cy="740.2" r="2"/> <circle cx="1105.7" cy="552" r="2.9"/> <circle cx="769.3" cy="1105.5" r="1.6"/> <circle cx="962.8" cy="1061.1" r="2.2"/> <circle cx="1037.6" cy="761.8" r="1.5"/> <circle cx="1157.2" cy="611.9" r="1.4"/> <circle cx="1209.4" cy="614.1" r="5.1"/> <circle cx="984" cy="706.4" r="2"/> <circle cx="889.8" cy="953.4" r="1.4"/> <circle cx="1015.4" cy="906" r="1.4"/> <circle cx="814.7" cy="1061" r="1.2"/> <circle cx="885.2" cy="1203.7" r="1.2"/> <circle cx="902.3" cy="1032.7" r="1.8"/> <circle cx="773.3" cy="857.8" r="1.2"/> <circle cx="925.8" cy="800" r="1.4"/> <circle cx="1040.5" cy="965.1" r="2.8"/> <circle cx="1047.5" cy="814.8" r="1.2"/> <circle cx="1024.9" cy="1059.4" r="2.1"/> <circle cx="771.7" cy="965.8" r="2.5"/> <circle cx="1029.4" cy="715.2" r="1.2"/> <circle cx="1162.4" cy="671" r="2.2"/> <circle cx="775" cy="1105.5" r="2.1"/> <circle cx="1032.5" cy="511.9" r="2.6"/> <circle cx="881.2" cy="712.8" r="1.2"/> <circle cx="622.1" cy="629.1" r="19.9"/> <circle cx="670.2" cy="532.9" r="19.4"/> <circle cx="675.3" cy="659.5" r="19.4"/> <circle cx="753.3" cy="689.3" r="19.3"/> <circle cx="718.1" cy="542.7" r="19.5"/> <circle cx="620.1" cy="564.7" r="19.4"/> <circle cx="712.9" cy="672.8" r="19.5"/> <circle cx="798.3" cy="697.6" r="19.5"/> <circle cx="744.2" cy="570.6" r="13.5"/> <circle cx="817.9" cy="545.8" r="14.3"/> <circle cx="631.8" cy="596" r="13"/> <circle cx="655.9" cy="630.8" r="13.2"/> <circle cx="603.5" cy="597.2" r="13.1"/> <circle cx="636.6" cy="655.7" r="8.7"/> <circle cx="794.3" cy="535.3" r="8.9"/> <circle cx="829.7" cy="686.5" r="8.8"/> <circle cx="760.1" cy="554.1" r="9.4"/> <circle cx="638.5" cy="532.6" r="9.4"/> <circle cx="759.5" cy="516.1" r="9.2"/> <circle cx="769.8" cy="713.7" r="9.2"/> <circle cx="726.9" cy="703.6" r="10.1"/> <circle cx="779.4" cy="577.5" r="9.3"/> <circle cx="805.4" cy="583.9" r="8.9"/> <circle cx="740.1" cy="516.7" r="8.6"/> <circle cx="706.5" cy="516" r="9.7"/> <circle cx="687.7" cy="688.9" r="9.3"/> <circle cx="647.4" cy="549.1" r="8.5"/> <circle cx="738" cy="660.4" r="8.5"/> <circle cx="740" cy="712.5" r="5.7"/> <circle cx="778.9" cy="549.3" r="9"/> <circle cx="843.2" cy="692.5" r="5.9"/> <circle cx="710.2" cy="699.2" r="7"/> <circle cx="786.2" cy="719.9" r="5.9"/> <circle cx="690.2" cy="514.3" r="6.3"/> <circle cx="783.6" cy="523.8" r="6.8"/> <circle cx="721.8" cy="517.6" r="5.7"/> <circle cx="798.1" cy="554.5" r="6.5"/> <circle cx="659" cy="678.5" r="5.7"/> <circle cx="741.9" cy="534.1" r="5.8"/> <circle cx="782" cy="675" r="8"/> <circle cx="645.2" cy="667.3" r="5.7"/> <circle cx="699.1" cy="647.6" r="7.2"/> <circle cx="761.6" cy="664.9" r="6.2"/> <circle cx="650.3" cy="648.9" r="5.7"/> <circle cx="597.7" cy="615.1" r="5.7"/> <circle cx="696.7" cy="529.6" r="5.7"/> <circle cx="766.3" cy="569.3" r="6.1"/> <circle cx="691.3" cy="547.7" r="6.1"/> <circle cx="725.1" cy="567.4" r="5.8"/> <circle cx="746.9" cy="542.8" r="4.3"/> <circle cx="631.1" cy="544.3" r="3.8"/> <circle cx="774" cy="512.5" r="3.9"/> <circle cx="822.7" cy="703.9" r="4"/> <circle cx="805.4" cy="525.7" r="5.7"/> <circle cx="832.8" cy="556.1" r="3.8"/> <circle cx="821.2" cy="582" r="4.3"/> <circle cx="805.6" cy="674.5" r="4.2"/> <circle cx="796.4" cy="522.7" r="3.8"/> <circle cx="593.6" cy="580.2" r="4.6"/> <circle cx="792.4" cy="579.2" r="3.8"/> <circle cx="818.2" cy="589.5" r="3.8"/> <circle cx="711.9" cy="649" r="4.4"/> <circle cx="832.8" cy="698.8" r="3.8"/> <circle cx="791" cy="590.3" r="5.6"/> <circle cx="720.8" cy="650.5" r="4.2"/> <circle cx="680.4" cy="632.8" r="4.5"/> <circle cx="759.1" cy="720.9" r="3.8"/> <circle cx="618.1" cy="605.7" r="3.8"/> <circle cx="772.1" cy="522.1" r="4.7"/> <circle cx="778" cy="686.1" r="3.8"/> <circle cx="770.2" cy="673.7" r="3.8"/> <circle cx="729.8" cy="509.8" r="3.8"/> <circle cx="903.6" cy="1311.5" r="16.8"/> <circle cx="906.2" cy="1363" r="16.7"/> <circle cx="958.4" cy="1278.4" r="16.8"/> <circle cx="904.8" cy="1400.2" r="17.1"/> <circle cx="902.3" cy="1435.7" r="16.9"/> <circle cx="980.3" cy="1311" r="17.1"/> <circle cx="989.7" cy="1372.5" r="11.3"/> <circle cx="909.4" cy="1485.8" r="11.4"/> <circle cx="905.7" cy="1532.4" r="11.9"/> <circle cx="905.2" cy="1583.9" r="11.3"/> <circle cx="982.1" cy="1394.4" r="11.3"/> <circle cx="904" cy="1556.6" r="12.4"/> <circle cx="991.5" cy="1348.5" r="11.7"/> <circle cx="911.9" cy="1459.4" r="8.7"/> <circle cx="894.7" cy="1461" r="8.4"/> <circle cx="912.7" cy="1334" r="7.4"/> <circle cx="912.5" cy="1506.9" r="7.7"/> <circle cx="914.6" cy="1288.7" r="8.5"/> <circle cx="902.7" cy="1602.8" r="7.8"/> <circle cx="967.4" cy="1419.5" r="7.7"/> <circle cx="891.6" cy="1335.3" r="7.6"/> <circle cx="895.8" cy="1510.1" r="7.9"/> <circle cx="904.1" cy="1633.9" r="5.1"/> <circle cx="889.9" cy="1377.3" r="5"/> <circle cx="904.2" cy="1617.3" r="6.7"/> <circle cx="892.9" cy="1493.3" r="5.6"/> <circle cx="996.3" cy="1330.2" r="5.8"/> <circle cx="984" cy="1333.7" r="5"/> <circle cx="960.8" cy="1430.3" r="5"/> <circle cx="978.8" cy="1286.7" r="5.3"/> <circle cx="961" cy="1300.5" r="5"/> <circle cx="898.9" cy="1291" r="4.1"/> <circle cx="975.4" cy="1407.4" r="3.3"/> <circle cx="980.5" cy="1360.2" r="4"/> <circle cx="891.7" cy="1478.5" r="4.8"/> <circle cx="935" cy="1276.5" r="6"/> <circle cx="900.4" cy="1472.7" r="4.6"/> <circle cx="891.1" cy="1415.4" r="3.3"/> <circle cx="904.4" cy="1517.3" r="3.3"/> <circle cx="887" cy="1349.8" r="3.5"/> <circle cx="918" cy="1345.2" r="4.6"/> <circle cx="901.6" cy="1339.6" r="3.3"/> <circle cx="918.3" cy="1381.9" r="5.3"/> <circle cx="917.1" cy="1418" r="4.6"/> <circle cx="966.5" cy="1408.5" r="3.3"/> <circle cx="895.8" cy="1571.5" r="4.1"/> <circle cx="973.5" cy="1331.3" r="3.3"/> <circle cx="946.9" cy="1437.5" r="4"/> <circle cx="903.5" cy="1642.3" r="3.3"/> <circle cx="908.3" cy="1470.9" r="3.4"/> <circle cx="911.3" cy="1610.3" r="3.3"/> <circle cx="912.9" cy="1571.1" r="3.7"/> <circle cx="920.3" cy="1299.9" r="3.5"/> </g> </svg>