<?xml version="1.0" encoding="UTF-8"?>
<svg viewBox="0 0 936.90625 768.21875" xmlns="http://www.w3.org/2000/svg">
 <defs>
  <linearGradient id="a" x1="81.709" x2="60.025" y1="304.73" y2="332.7" gradientUnits="userSpaceOnUse">
   <stop offset="0"/>
   <stop stop-opacity="0" offset="1"/>
  </linearGradient>
 </defs>
 <g transform="translate(108.69 7.75)">
  <path d="m35.355 555.37c-67.704 11.908-146.87-14.607-212.13 4.0406" fill="none" stroke="#000"/>
  <path d="m66.67 523.04c-93.804 8.6396-154.66-37.749-232.34-63.64" fill="none" stroke="#000"/>
  <g transform="matrix(-1.2361 0 0 1.0783 652.46 10.902)">
   <path d="m444.97 60.897c19.139-15.548 42.083-28.608 53.538-51.518 11.783-23.565 76.233-29.428 82.833-3.0305 4.6597 18.639 8.7614 140.65 0.50507 153.04-4.7699 7.1548-10.976 49.971-9.0914 56.569" fill="#ececec" stroke="#000"/>
   <path d="m560.63-4.7624c-8.0205 8.274-18.698 14.991-28.789 21.718-9.1154 6.0769-39.901 25.613-39.901 37.881 0 5.6107-2.4177 23.937 9.0914 18.183 6.8902-3.4451 42.049-52.15 52.528-62.629 1.7596-1.7596 22.728-16.224 22.728-4.5457 0 6.3039-10.815-6.5709-15.657-10.607z" stroke="#000"/>
   <path d="m558.89 11.134 51.177 4.0206-57.749 5.0238 47.597 10.304-48.472 5.8424 59.418-0.25685-61.962 11.637 48.159 5.1842-60.06 10.649 58.985 2.7847-65.18 10.088 57.693 1.8457s-65.108 14.879-62.701 15.641 56.224-0.2087 56.224-0.2087l-55.502 16.331 76.913-5.3127-67.965 5.4973 46.402 15.753-56.449-4.1008c22.399-31.498 46.443-62.203 33.473-110.72z" fill="#fff"/>
  </g>
  <g transform="matrix(1.2361 0 0 1.0783 -125.66 8.0451)">
   <path d="m444.97 60.897c19.139-15.548 42.083-28.608 53.538-51.518 11.783-23.565 76.233-29.428 82.833-3.0305 4.6597 18.639 8.7614 140.65 0.50507 153.04-4.7699 7.1548-10.976 49.971-9.0914 56.569" fill="#ececec" stroke="#000"/>
   <path d="m560.63-4.7624c-8.0205 8.274-18.698 14.991-28.789 21.718-9.1154 6.0769-39.901 25.613-39.901 37.881 0 5.6107-2.4177 23.937 9.0914 18.183 6.8902-3.4451 42.049-52.15 52.528-62.629 1.7596-1.7596 22.728-16.224 22.728-4.5457 0 6.3039-10.815-6.5709-15.657-10.607z" stroke="#000"/>
   <path d="m558.89 11.134 51.177 4.0206-57.749 5.0238 47.597 10.304-48.472 5.8424 59.418-0.25685-61.962 11.637 48.159 5.1842-60.06 10.649 58.985 2.7847-65.18 10.088 57.693 1.8457s-65.108 14.879-62.701 15.641 56.224-0.2087 56.224-0.2087l-55.502 16.331 76.913-5.3127-67.965 5.4973 46.402 15.753-56.449-4.1008c22.399-31.498 46.443-62.203 33.473-110.72z" fill="#fff"/>
  </g>
  <path d="m268.69-6.2812-2 40.406-34.344-35.344 3.0312 40.406-33.344-37.375 1 48.469-32.312-44.438 3.0312 36.375-41.406-27.281 22.219 28.281-54.562-15.156 29.312 23.25-45.469-6.0625 19.188 31.312-68.688-20.219 49.5 32.344-60.625-1.0312s46.488 18.188 41.438 18.188-53.531 4.0312-53.531 4.0312l66.656 29.312s-72.865-8.5686-91.094-11.281c15.651 4.8695 64.844 29.469 64.844 29.469s-83.863-8.1039-78.812-7.0938 86.873 34.375 80.812 34.375-69.688-14.156-69.688-14.156l-33.344 8.0938 18.188 13.125-41.406 12.125 32.312 11.094-28.281 9.0938 12.125 10.094s-42.447 4.0524-38.406 5.0625 42.438 15.156 42.438 15.156-43.447 14.136-39.406 16.156 37.375 8.0938 37.375 8.0938l-31.312 7.0625s32.322 8.0938 28.281 8.0938-32.312 1-32.312 1l25.25 16.156-37.375 4.0312s37.395 14.146 32.344 15.156-38.406 7.0938-38.406 7.0938l35.375 11.094-34.344 15.156 34.344 7.0625-25.281 11.125 18.188 8.0625-27.25 19.219s54.52-1.0102 49.469 0-47.469 25.25-47.469 25.25l53.531-1.0312-36.344 15.156 45.438 6.0625-33.312 14.156 29.281 11.094-28.281 12.125 26.25 18.188-24.219 14.156s30.255 2.0549 37.781 2.1875c-5.6259 2.0481-15.562 17-15.562 17l37.375 12.125-24.25 20.188 39.406-7.0625-20.219 28.281 34.344-9.0938-15.156 21.219 13.156 11.125-28.312 20.188h36.375l-35.344 21.219 52.531 1-55.562 26.281 45.438-9.0938-36.344 28.281 46.469-6.0625-41.438 19.188 54.562-3.0312-30.312 15.156 40.406-17.188-9.0938 26.281 51.531-29.312-12.125 31.344 18.188-34.375 26.25 32.344 2.0312-29.312 33.344 31.344 4.0312-27.281 37.375 29.281-1-21.219 46.438 21.219-22.219-28.281 55.562 28.281-10.094-26.25 56.562 20.188-26.25-23.219 31.406 15.406 6.1562 17.094 12.75-7.8438 1.1875 0.59375-0.4375-1.0625 32.938-20.25 7.8438 29.281 35.719-29.281 20 32.844 22.844-30.719 35.719 25.719 20.719-51.406 14.281 61.406 12.875-33.562 15.688 32.156 0.71875-36.438 29.281 22.844-0.6875-13.562 33.562 12.156 2.8438-12.156 25 27.156-0.71875-25.719 7.875 16.406 26.438-17.844-1.4375 28.562 15.719-30.719 18.562 30-7.1562-27.844 35 20.719-22.125-18.562 52.844 12.125-41.406-12.844 52.125-5-41.438-18.594h45l-34.281-14.281 33.594-2.125-32.875-12.156 35.719-7.125-23.562-0.71875 20-13.594-36.438-0.6875 35.719-10.719-31.438-4.2812 35-12.875-25-0.71875 23.562-13.562-33.562 3.5625 47.156-20-33.594-5.7188 27.156-6.4062-30.719-4.2812 17.156-15.719-52.156 18.562 52.156-27.844h-27.875l16.438-15-32.844 2.8438 25-22.844-44.312 1.4062 27.156-10.719-38.562 5 14.281-12.844-34.281-5.7188 27.125-7.8438-66.406-13.594h62.844l-50-19.281h30.719l-45.719-25 38.562 13.594-49.281-40.719 35 0.71875-42.125-11.438 35-11.438-35.719 1.4375 24.281-22.875-31.438 1.4375 31.438-27.125-37.875 7.125 8.5938-17.844-22.875 3.5625 16.438-28.562-18.562 7.8438 12.844-18.562-25.719 5.7188 13.594-18.594-10.719 4.3125 7.125-16.438-18.562 4.2812 11.438-22.156-17.156 2.875-1.4375-42.875-22.469 2.0625 14.5-26.5-37.375 13.125 30.312-39.375-60.625 8.0625 28.281-36.344-56.562 1 24.25-40.406-60.594 21.219 20.188-47.469-25.25 24.219 18.188-51.5-24.25 23.219 12.125-32.312-26.281 39.406-11.094-41.438-16.156 31.312v-32.312l-39.406 20.188-24.25-47.469-3.0312 33.344-36.344-31.312-1.0312 33.312-27.281-38.375zm-282 134.19c-1.7188-0.5348-3.0753-0.84375-3.875-0.84375-1.2746 0 0.46164 0.3358 3.875 0.84375z" fill="#f2f2f2" stroke="#000"/>
  <path d="m528.57 268.08-12.857 15.714 28.571-1.4286-7.1428 11.429 28.571 7.1429-11.429 12.857 22.857 8.5714-41.429 25.714 41.429 4.2857-40 30 34.286 5.7143-50 17.143 50 20-47.143 5.7143 25.714 28.571-47.143-7.1429 30 30-57.143 11.429 30 14.286h-54.286l28.571 34.286-61.429-18.571 11.429 42.857-54.286-12.857 20 22.857-42.857-11.429 22.857 34.286-52.857-4.2857 24.286 28.571-48.571 8.5714 34.286 7.1429-45.714 42.857h25.714l-21.429 25.714 41.429-8.5714-1.4286 22.857 17.143-22.857 38.571-10-8.5714-37.143 37.143 12.857-10-34.286 55.714 12.857-30-41.429 47.143 11.429-5.7143-27.143 48.571 14.286-21.429-45.714 45.714 11.429 1.4286-28.571 50 10s-47.143-50-31.429-48.571 54.286-2.8571 54.286-2.8571l-17.143-51.429 38.571-2.8572-38.571-38.571 44.286-8.5714-38.571-8.5714 30-34.286-38.571-1.4286 27.143-34.286-40-7.1429 22.857-25.714-32.857-4.2857 18.571-32.857-44.286 4.2857 27.143-25.714-30-5.7143 20-30-37.143 12.857-14.286 25.714h17.143l-20 21.429h27.143z" fill="#ccc"/>
  <path d="m256.43 538.79 32.143-4.2857 50-14.286-15.714-7.1428h29.286l-18.571-7.8572h27.143l-14.286-19.286 20 0.71429-18.571-15 32.857 2.8571-17.857-22.143 31.429 10-11.429-30.714 27.857 17.857-11.429-26.429 29.286 17.857-16.429-32.143 32.143 17.143-9.2857-20.714 36.429 11.429s-39.286-28.571-32.143-27.143 61.429 18.571 61.429 18.571-33.571-22.857-29.286-22.857 42.857 2.8572 42.857 2.8572l-27.857-7.1429 25.714-4.2857s-25-23.571-20-22.857 35.714-4.2857 35.714-4.2857l-29.231-8.33 39.766-28.597-47.678 16.213 43.571-30.714-30-3.5714 27.143-15-41.429-2.1429 47.857-37.143-37.143 8.5714 9.2857-28.571-34.286 17.857 12.143-38.571-57.857 10 34.286-21.429-40.714-6.4286 30-10-29.286-7.8572 20.714-11.429-32.143-7.8571 39.286-22.857-27.857 0.71428s35-17.857 27.857-17.143-43.571 5-43.571 5l42.143-30-53.571 12.143 20.714-43.571-27.143 28.571-2.1429-45-15 22.143-15-43.571-11.429 22.143-30-28.571-7.8572 23.571-27.143-27.143-0.71429 26.429-23.571-25-17.857 26.429-22.857-26.429-12.143 30.714-16.429-25 2.8571 25-39.286-15 11.429 15-39.286-6.4286 17.143 15-39.286 2.8571 11.429 12.143h-43.571l22.857 9.2857-43.571-0.71429 27.143 15.714-37.143-0.71429 13.571 14.286-47.143 6.4286 43.571 15.714-35.714 4.2857 44.286 20.714h-37.143l25 19.286s-37.857-6.4286-35-6.4286 22.143 19.286 22.143 19.286l-40-2.1428s22.857 13.571 20 14.286-45 1.4286-45 1.4286l37.857 24.286-69.286-2.8572 40 17.143-36.429 4.2857s29.286 11.429 25.714 12.143-35 2.1429-35 2.1429l41.429 22.143-37.857 22.143 26.429 4.2857-19.286 22.857 37.143 3.5714-35.714 8.5714 31.429 10-31.429 6.4286 35.714 0.71428-35 28.571 31.429-9.2857-32.857 47.857 37.857-17.143-12.857 17.143 41.429-6.4286-38.571 17.143 54.286-10-37.857 21.429 63.571-12.857-46.429 24.286 30-3.5714s-27.143 22.143-24.286 22.143 50-20 50-20l-26.429 22.857 33.571-17.143-8.5714 27.857 32.857-6.4286-18.571 19.286 48.571-17.857-35 27.857 29.286-4.2857-14.286 12.857 20.714 2.8571-10.714 15 47.143 8.5714z" fill="#ccc"/>
  <path d="m131.43 520.93c-13.911-11.191 2.3915-24.783 7.1429-34.286 4.1246-8.2493-15.382-9.9496-2.1429-36.429 5.8436-11.687-5.6278-24.026-9.2857-35-2.484-7.4519 6.1212-9.7923 7.8571-15 7.4714-22.414-7.2271-44.832 4.2857-67.857 1.0714-2.1427 91.154-6.209 95-4.2857 3.4938 1.7469 6.5622 11.829 7.8572 15.714 3.5988 10.797 7.0988 24.198 12.143 34.286 3.6993 7.3986-8.1994 11.83-5 21.429 1.5506 4.6519 17.561 9.8778 13.571 17.857-4.6628 9.3257-14.62 17.098-19.286 26.429-2.1001 4.2001 8.4866 7.6025 9.2857 10 1.535 4.605 2.1831 11.509 4.2857 15.714 4.6612 9.3224-9.5482 16.108-13.571 22.143-14.68 22.021 19.718 52.857-48.571 52.857-49.073 0-34.65 5.35-63.571-23.571z" fill="#b6b6b6"/>
  <path d="m132.86 355.22c66.705-69.625 34.275 51.791 65 36.429 1.47-0.73501 9.6235-66.805 32.857-43.571 5.973 5.973 13.974 9.5319 18.571 16.429 1.0591 1.5886 8.9514 36.049 11.429 33.571 9.7322-9.7322 0.96654-46.386-2.8572-57.857-5.746-17.238 17.986-31.757 12.143-49.286-2.7598-8.2794-15.458-28.443-24.286-32.857-46.061-23.031-21.485 58.021-39.286 53.571-13.423-3.3557-14.524-23.333-26.429-29.286-8.2232-4.1116-15.498 3.4054-21.429 1.4286-8.9942-2.9981-23.365-15.461-34.286-10-2.9258 1.4629 4.9615 71.802 8.5714 81.429z" fill="#4f4f4f"/>
  <path d="m135.36 524.05c-0.97908-10.556 15.612-14.349 23.234-21.718 3.7658-3.641 6.2998-9.042 11.112-11.112 5.7245-2.4623 12.618-1.9149 18.688-0.50507 7.4088 1.7208 13.663 6.724 20.203 10.607 5.2198 3.0986 12.288 4.7495 15.152 10.102 2.1449 4.0078 2.4899 9.8339 0 13.637-5.5339 8.4526-17.949 9.7894-27.779 12.122-9.023 2.141-18.597 2.8146-27.779 1.5152-7.5916-1.0743-14.818-4.233-21.718-7.5761-3.9509-1.9143-10.706-2.6996-11.112-7.0711z" fill="#3e3e3e"/>
  <path d="m8.5863 286.92 18.94-0.50508c8.2899 10.47 16.784 4.7815 25.316 5.274 18.077 0.34006 27.44 6.9637 41.027 13.303-1.4933-3.9097-4.4485-7.8042-5.7165-11.549 16.722 21.187 12.986 42.182 20.721 63.223 0.75754 2.0412 6.1937 14.697 4.3555 15.881-2.4522 1.5794-9.8567-10.87-10.435-7.757 0.82547 17.4-13.69-1.6924-21.039 8e-3 -55.9-1.062-68.339-46.224-67.075-55.133-3.0745 1.7444-8.7971 0.28649-8.7971 0.28649l3.384-2.8359-5.4368 0.73219 6.8126-3.1421-7.4406-1.2791 6.5289-4.1-8.1602-0.0147s13.441-6.2782 18.884-8.6043l-11.869-3.788z" fill="#010203" stroke="#000"/>
  <path transform="matrix(1.1072 0 0 1.1109 -4.8173 -38.159)" d="m93.571 324.59c-0.02511 14.152-12.752 25.625-28.482 25.625s-23.807-12.262-28.482-25.625c-6.1668-17.626 9.7938-30.85 28.482-25.625 16.001 4.4737 28.507 11.67 28.482 25.625z" fill="#7ba1bc" stroke="#000"/>
  <path d="m92.321 320.94c-1.6778 11.266-13.097 19.85-24.958 20.646-13.95 0.9354-17.817-9.7793-21.208-21.181-5.1907-17.457 7.4665-21.894 22.279-21.003 13.956 0.83952 25.638 9.7728 23.886 21.538z" fill="#097ba3"/>
  <path transform="translate(1.4286 -2.5)" d="m76.786 318.08c0 4.0435-3.7176 7.3214-8.3036 7.3214s-8.3036-3.2779-8.3036-7.3214 3.7176-7.3214 8.3036-7.3214 8.3036 3.2779 8.3036 7.3214z"/>
  <path transform="matrix(1.1072 0 0 1.1109 -4.8173 -38.159)" d="m93.571 324.59c-0.02511 14.152-12.752 25.625-28.482 25.625s-23.807-12.262-28.482-25.625c-6.1668-17.626 9.7938-30.85 28.482-25.625 16.001 4.4737 28.507 11.67 28.482 25.625z" fill="url(#a)"/>
  <g transform="matrix(-1 0 0 1 400.04 -5.0508)">
   <path d="m8.5863 286.92 18.94-0.50508c8.2899 10.47 16.784 4.7815 25.316 5.274 18.077 0.34006 27.44 6.9637 41.027 13.303-1.4933-3.9097-4.4485-7.8042-5.7165-11.549 16.722 21.187 12.986 42.182 20.721 63.223 0.75754 2.0412 6.1937 14.697 4.3555 15.881-2.4522 1.5794-9.8567-10.87-10.435-7.757 0.82547 17.4-13.69-1.6924-21.039 8e-3 -55.9-1.062-68.339-46.224-67.075-55.133-3.0745 1.7444-8.7971 0.28649-8.7971 0.28649l3.384-2.8359-5.4368 0.73219 6.8126-3.1421-7.4406-1.2791 6.5289-4.1-8.1602-0.0147s13.441-6.2782 18.884-8.6043l-11.869-3.788z" fill="#010203" stroke="#000"/>
   <path transform="matrix(1.1072 0 0 1.1109 -4.8173 -38.159)" d="m93.571 324.59c-0.02511 14.152-12.752 25.625-28.482 25.625s-23.807-12.262-28.482-25.625c-6.1668-17.626 9.7938-30.85 28.482-25.625 16.001 4.4737 28.507 11.67 28.482 25.625z" fill="#7ba1bc" stroke="#000"/>
   <path d="m92.321 320.94c-1.6778 11.266-13.097 19.85-24.958 20.646-13.95 0.9354-17.817-9.7793-21.208-21.181-5.1907-17.457 7.4665-21.894 22.279-21.003 13.956 0.83952 25.638 9.7728 23.886 21.538z" fill="#097ba3"/>
   <path transform="translate(1.4286 -2.5)" d="m76.786 318.08c0 4.0435-3.7176 7.3214-8.3036 7.3214s-8.3036-3.2779-8.3036-7.3214 3.7176-7.3214 8.3036-7.3214 8.3036 3.2779 8.3036 7.3214z"/>
   <path transform="matrix(1.1072 0 0 1.1109 -4.8173 -38.159)" d="m93.571 324.59c-0.02511 14.152-12.752 25.625-28.482 25.625s-23.807-12.262-28.482-25.625c-6.1668-17.626 9.7938-30.85 28.482-25.625 16.001 4.4737 28.507 11.67 28.482 25.625z" fill="url(#a)"/>
  </g>
  <path d="m116.61 500.4c6.4693-5.0796 5.5434 29.149 18.457 25.523 1.0289-0.32408 25.839-16.295 38.773-3.4726 12.111 15.451 21.321 4.3576 34.54-3.5055 13.384-7.9605 27.906-1.1809 32.829-1.3285 2.5881-0.0776 6.1298 5.4055 8.7933 5.4051 2.1527-3.7e-4 3.4841-5.3167 5.21-6.5002 6.5838-4.5152 2.5266-23.223 10.344-21.601 9.1195 1.8916 3.6463 18.977 1.0484 27.921-3.8609 13.292-13.715 24.46-23.546 34.204-4.778 10.556-22.922 18.014-34.947 22.909-3.5337 1.4384-1.1703 5.8208-2.6726 8.4524-1.5453 4.9726-1.244 12.905 1.8865 15.971 2.8564 2.7978 9.0795 1.2882 12.568 4.5144 21.903 10.831 38.556 17.055 51.658 15.486 2.051-0.72126 12.549-5.1467 12.552-7.7282 2e-3 -1.8386-10.599-1.862-9.4753-2.9276 3.596-3.411 11.02-5.5782 15.925-6.2873 13.947-2.0162 45.127-8.2683 50.226-15.831 5.4911 4.6396-0.61856 14.565-2.9589 21.362-12.478 13.483-22.176 28.394-26.121 45.039-2.5574 3.3918-4.8918 10.748-8.8395 9.1795-6.4336-4.2326 7.7887-26.221-0.34807-34.386-11.959-12.135-32.274 0.73939-49.311 0.87502-9.9959 0.0796-21.976 1.1777-31.75-0.9218-9.7448-2.0934-15.685-8.8826-28.69-6.9528-9.5395 1.4155-27.128 12.06-36.598 13.883-6.8046 1.3102-16.331-2.1778-23.327-2.4899-5.9551-0.26563-9.3885 2.852-15.145 1.5677-9.9312-0.57556-39.63-16.081-33.776-23.303 6.9075-7.6091 25.035-4.9724 34.187-0.29777 6.1579 3.1453 7.3495 13.566 14.054 15.257 14.992 3.7811 30.982-6.5553 43.847-15.132 6.196-4.1309 12.684-8.7906 15.792-14.141 2.5535-4.3959 2.8247-9.2579-1.2234-14.675-5.6117-3.6668-19.428-12.709-28.287-21.775-8.5627-6.1862-18.65-10.423-26.24-17.769-8.4331-8.1615-15.305-17.21-18.541-28.491-1.6618-5.7927-6.6871-16.379-0.89286-18.036z"/>
  <path d="m189.82 579.51c1.5735-2.6795 3.6106-5.5118 3.7106-8.6239 0.12766-3.972-2.9357-15.049-0.49633-11.912 3.9301 5.0544 2.8585 12.577 5.5357 18.393 4.2695 4.7071 16.54 0.14956 15.288-5.8116-0.74716-3.0742-4.8109-4.3543-5.7566-7.6597-0.52471-1.8339-2.5937-3.4102-2.2097-5.2786 0.9234-4.4926 2.7037-9.0685 6.3028-12.236 3.3801-2.975 4.8216-7.8281 8.5543-10.27 5.3621-3.5079 10.912-6.6071 16.743-9.4465 2.5611-1.2472-2.5364-5.2951-4.0103-6.9314-2.7608-3.0648-6.8347-3.2677-10.679-2.6179-5.963 1.0078-12.306 2.6-16.862 6.5629-4.1449 3.6051-8.5154 6.4844-13.684 7.7452-4.0303 0.98302-8.3525 1.7729-12.381-0.41237-3.7134-2.0143-6.8426-4.57-10.342-6.809-3.1524-2.0172-7.4428-1.4766-11.209-1.6366-4.2286-0.17291-20.696 3.3586-18.683 6.4093 3.2718 4.2009 9.9816 3.8859 14.64 6.4004 11.009 6.7839 19.832 17.37 25.686 27.492 2.2426 3.9256 0.59917 7.165-0.70523 11.019-0.25989 4.9913 7.7492 5.4088 10.558 5.6244z" fill="#c0c0c0"/>
  <path d="m103.57 397.36c-5.0304 1.1817-5.02 5.397-6.7857 8.9286-21.664 43.328 35.291 7.3604 6.7857-8.9286z" stroke="#000"/>
  <path d="m101.07 207.36c-5.2832 5.0507-15.398 8.6523-18.929 15.714-2.7312 5.4623-10.357 33.504-10.357 38.929 0 2.4724-3.5848 4.8014-1.7857 7.5 1.1113 1.667 8.7833 2.2488 10.714 3.2143 12.082 6.0411 31.266-50.085 20.357-65.357z" stroke="#000"/>
  <path d="m30.714 209.51c-5.8366 1.011-21.184 26.711-18.929 28.214 4.6846 3.1231 13.744-4.4703 15.714-2.5 3.9324 3.9324-4.0236 19.436 9.2857 15 2.3744-0.79145 4.8762-6.3047 6.7857-8.2143 15.86-15.86 5.7533-30.174-12.857-32.5z" stroke="#000"/>
  <path d="m38.929 191.29c4.9102 0.46907 8.4847-3.1275 11.786-6.4286 13.59-13.59-21.071-23.774-21.071-19.286 0 6.0822 6.5652 4.5589 8.2143 7.8571 2.4429 4.8857-0.12595 12.469 1.0714 17.857z" stroke="#000"/>
  <path d="m115 155.93c-7.5122 1.7569-14.364 5.9786-21.071 8.2143-6.9484 2.3161-16.985 6.483-22.143 12.5-4.8866 5.701 1.2808 16.823 8.5714 15 4.7483-1.1871 14.237-14.372 20-18.214 11.029-7.3524 20.091 2.6758 27.143-11.429 3.9872-7.9745-8.5519-6.0714-12.5-6.0714z" stroke="#000"/>
  <path d="m93.929 125.93c-3.6725 0.43283-6.128 2.6054-8.9286 4.2857-33.816 20.29 14.643 33.507 14.643 5.7143 0-4.4894-2.4738-8.6112-5.7143-10z" stroke="#000"/>
  <path d="m61.786 129.51c-43.952 25.843 13.033 30.409 0 0z" stroke="#000"/>
  <path d="m82.143 90.576c-4.0593 0.85426-7.1954 3.5714-11.429 3.5714-6.1149 0-10.009 4.646-15.357 6.4286-20.307 6.769 32.004 31.748 26.786-10z" stroke="#000"/>
  <path d="m90.357 104.51c-16.899 8.3253-13.826 34.794-1.7857 10.714 2.2961-4.5921 5.6064-5.3654 1.7857-10.714z" stroke="#000"/>
  <path d="m113.21 99.505c-2.908 3.2344-7.424 3.1383-10.357 6.0714-12.632 12.632 23.292 8.7262 19.643 1.4286-1.7194-3.4388-8.0048-5.8022-10.714-9.2857" stroke="#000"/>
  <path d="m130.36 68.434h-16.071c-8.4248 0-27.96 14.49-13.571 19.286 10.564 3.5212 46.021-12.007 29.643-19.286z" stroke="#000"/>
  <path d="m140 101.29c4.6105-5.0833-3.7552-7.6629-2.1429-12.5 5.0686-15.206 28.821 6.4822 18.214 11.786-6.7162 3.3581-10.933-1.4877-16.071 0.71428z" stroke="#000"/>
  <path d="m132.14 109.51c-2.4703-0.67105-9.7788 4.3709-8.2143 7.5 1.0081 2.0162 6.0565 1.7807 8.2143 2.5 18.94 6.3133 16.025-23.354 0-10z" stroke="#000"/>
  <path d="m100.71 153.08c14.122 4.6543 24.408-5.8348 35.714-10.357 1.1828-0.47311 13.044-8.3849 11.786-9.6428-8.4232-8.4232-49.643 15.343-49.643 18.214 0 2.4697 3.3433 1.2572 4.2857 1.4286" stroke="#000"/>
  <path d="m168.93 103.08c1.3329 17.526-13.256 12.227-13.929 13.571-1.2673 2.5346 27.976 9.2856 29.286 5.3571 2.1953-6.586-10.198-4.4066-7.8571-11.429 0.55131-1.6539 21.516-3.04 18.571-8.9286-6.9979-13.996-21.498-3.5384-25.357 3.2143" stroke="#000"/>
  <path d="m167.86 50.934c-4.3622-1.8114-8.2987 2.1429-11.786 2.1429-8.2482 0-15.894 9.9102-5.7143 15 1.3417 0.67087 47.698-7.5795 38.571-12.143-6.2652-3.1326-14.383-2.1333-21.071-5z" stroke="#000"/>
  <path d="m190.71 72.005c-6.8463 0.11285-17.86 5.72-21.071 12.143-0.81999 1.64 2.6092 3.0539 3.5714 3.2143 34.211 5.7018 62.406-20.97 17.5-15.357z" stroke="#000"/>
  <path d="m259.29 97.719c-4.4211-1.3749-8.0207 1.2016-11.786 2.1429-27.437 6.8592 1.0689 20.001 12.5 14.286 10.362-5.1812 12.781-13.001-0.35714-14.643" stroke="#000"/>
  <path d="m136.79 199.51c4.3465-2.201 4.9441-6.0646 7.5-9.6429 8.7963-12.315 0.67434-31.409-16.429-22.857-21.494 10.747 1.8148 33.389 8.9286 32.5z" stroke="#000"/>
  <path d="m137.5 204.86c6.8517 14.445-3.9286 24.21-3.9286 38.214 0 19.128 39.255-24.967 3.9286-38.214z" stroke="#000"/>
  <path d="m145.71 257.36c-5.805 3.7581-12.188 6.8765-15 12.5-11.608 23.217 41.389-1.1905 15-12.5z" stroke="#000"/>
  <path d="m157.14 279.86c-35.936 15.419-4.0919 27.439 0.35714 9.6429 1.1067-4.4268 2.8677-5.773-0.35714-9.6429z" stroke="#000"/>
  <path d="m186.07 141.29c-7.7726-2.2834-14.95-0.52985-21.786 3.5714-14.001 8.4006 21.786 29.002 21.786-3.5714z" stroke="#000"/>
  <path d="m208.57 129.15c-16.08 26.702 10.362 24.179 0 0z" stroke="#000"/>
  <path d="m222.86 136.65c-11.372 30.591 19.757 30.343 10.714 3.2143-0.66851-2.0055-7.0223-1.9829-8.9286-3.5714" stroke="#000"/>
  <path d="m194.64 166.65c1.386 31.858 19.413-11.093 0 0z" stroke="#000"/>
  <path d="m175.36 170.22c-2.4908 0.33905-3.8652 5.2036-2.1428 7.5 13.415 17.887 11.069-23.12 2.1428-7.5z" stroke="#000"/>
  <path d="m218.57 186.65c-4.8044 0.9906-5.334 4.9491-7.1429 8.9286-6.8044 14.97 25.501 2.5455 7.1429-8.9286z" stroke="#000"/>
  <path d="m223.57 175.22c-1.9481-0.96759-3.9573-0.71428-6.0714-0.71428-5.9196 0 9.6429 12.35 9.6429 2.8571 0-2.1508-1.9177-1.7294-3.5714-2.1429z" stroke="#000"/>
  <path d="m244.64 201.65c-3.6412 0.80225-5.7504 4.0979-8.2143 6.7857-2.8179 3.0741-7.3566 5.142-9.6429 8.5714-6.0196 9.0295 2.5468 27.845 13.929 25 9.6418-2.4104 8.1244-35.322 3.9286-40.357z" stroke="#000"/>
  <path d="m264.64 183.08c-22.459-4.3436-12.015 25.586 2.5 11.071 3.4358-3.4358-0.23585-8.3544-2.5-11.071z" stroke="#000"/>
  <path d="m225 257.36c2.5521 9.6002-3.4498 19.772-1.0714 29.286 0.97805 3.9122 13.251 8.5348 16.786 5 14.902-14.902-6.185-27.479-15.714-34.286z" stroke="#000"/>
  <path d="m210 220.93c-3.7919 1.686-6.1583 6.2992-8.2143 10-0.71847 1.2933-7.4442 24.587 1.7857 15.357 0.62259-0.62259 13.126-29.184 6.4286-25.357z" stroke="#000"/>
  <path d="m185.36 202.72c-5.6551 6.1999-15.394 26.297-4.2857 30 4.2448 1.4149 9.5186-34.361 4.2857-30z" stroke="#000"/>
  <path d="m180 291.29c-4.0816 4.7861-17.817 14.366-13.929 22.143 2.1678 4.3355 18.962-10.731 21.071-11.786 6.1521-3.0761 16.496 18.504 22.143 12.857 2.4546-2.4546-12.143-18.467-12.143-23.571 0-7.3759 8.2644-40.102-1.0714-43.214-14.406-4.802-15.079 35.629-16.071 43.571z" stroke="#000"/>
  <path d="m298.93 157.72c-6.6163 3.2146-16.561-3.1483-22.857 0-24.693 12.347 13.268 38.358 22.857 0z" stroke="#000"/>
  <path d="m288.93 206.29c-4.4201 5.9711-5.7143 20.384-5.7143 28.571 0 16.475 4.8572 37.857 23.571 37.857 3.4051 0 6.4203-0.6937 7.8572-4.2857 4.2313-10.578-5.2979-65.328-15.357-70.357-3.9412-1.9706-7.2414 5.0985-10.357 8.2143z" stroke="#000"/>
  <path d="m285 399.51c-27.557 34.13 52.93 33.081 0 0z" stroke="#000"/>
  <path d="m409.29 360.22c10.816-1.4768 20.092 7.1429 30 7.1429 35.492 0-47.877-40.664-57.857-15.714-9.7006 24.252 27.857 59.539 27.857 8.5714z" stroke="#000"/>
  <path d="m455 313.79c-3.9569 20.2 5.0572 95.329 41.429 77.143 21.751-10.875-25.358-72.551-41.429-77.143z" stroke="#000"/>
  <path d="m442.14 292.36c-33.911 1.9561 0 51.59 0 0z" stroke="#000"/>
  <path d="m430.71 273.79c-17.85-3.7075-48.917 39.639-15.714 28.571 10.901-3.6336 11.93-19.744 19.286-28.571" stroke="#000"/>
  <path d="m340 175.93c-23.459-28.734-27.307 9.561-5 20.714 4.5694 2.2847 15.346-17.758 5-20.714z" stroke="#000"/>
  <path d="m300 70.219c-52.244 19.241 13.758 27.483 15.714 23.571 0.93214-1.8643-1.4286-12.513-1.4286-15.714 0-8.3733-7.3394-7.0853-14.286-7.8571z" stroke="#000"/>
  <path d="m324.29 120.22c-69.421-39.159-24.668 14.096 0 0z" stroke="#000"/>
  <path d="m315.71 134.51c-35.167-7.3694 5.7552 17.143 20.714 17.143 0.053 0-14.065-5.506-20.714-17.143z" stroke="#000"/>
  <path d="m350.71 71.648c-43.555-7.8075 2.8571 27.489 2.8571 0.71429" stroke="#000"/>
  <path d="m326.43 48.076c-6.2856-1.1817-12.863-0.71428-19.286-0.71428-27.602 0 14.781 27.582 25.714 5.7143 2.0863-4.1727-2.0826-3.9135-6.4286-5z" stroke="#000"/>
  <path d="m270 55.219c-41.565 10.642 12.542 29.265 0 0z" stroke="#000"/>
  <path d="m374.29 200.22c-7.8286 1.9444-15.503 8.0555-20 11.429-4.0637 3.0478-9.6751 2.9001-12.857 7.1428-18.848 25.13 16.091-2.6687 21.429 0 7.2582 3.6291-22.067 30.501-12.857 33.571 18.599 6.1997 27.102-21.305 30.714-32.143 1.959-5.8771 18.571-6.9093 18.571-0.71428 0 10.525-17.558-11.844-25-19.286z" stroke="#000"/>
  <path d="m407.86 226.65c-8.1564 51.707 31.495 31.495 0 0z" stroke="#000"/>
  <path d="m433.57 243.08c2.6052 43.892 35.048 39.914 3.5714 2.1428" stroke="#000"/>
  <path d="m360.71 113.79c-15.443-3.6965 8.4955 36.58 14.286 25 2.864-5.7279-12.137-19.986-14.286-25z" stroke="#000"/>
  <path d="m380 109.51c-5.647 45.756 26.866 22.58 2.8571-1.4286" stroke="#000"/>
  <path d="m352.86 133.08c-2.7622-3.1398-17.177-1.4627-10.714 5 23.486 23.486 23.237-5 10.714-5z" stroke="#000"/>
  <path d="m396.43 154.51c-33.848-2.6475 24.556 41.525 12.857 6.4286-2.2668-6.8003-7.3974-9.3584-12.143-10.714" stroke="#000"/>
  <path d="m373.57 173.08c13.751 17.189 26.806 34.412 50 42.143 6.3407 2.1136-6.1546-15.274-1.4286-20 5.473-5.473 19.046 15.003 21.429 11.429 10.083-15.124-6.8312-28.058-16.429-32.857-8.9718-4.4859-10.196 18.982-24.286 14.286-12.411-4.1369-17.134-21.944-29.286-15z" stroke="#000"/>
  <path d="m279.29 464.51c-25.503 2.3345 8.5714 32.101 8.5714 7.1429 0-4.5312-4.898-5.7653-8.5714-7.1429z" stroke="#000"/>
  <path d="m467.7 522.03c-9.8622-0.93453-19.877-0.50508-29.8-0.50508-4.4052 0-14.076 4.479-17.173 7.5761-15.927 15.927 11.135 17.788 22.223 22.223 25.758 10.303 43.285-19.381 15.657-27.274" stroke="#000"/>
  <path d="m507.6 481.63c-4.3922-2.4045-13.982-5.5494-18.688-2.0203-15.295 11.471 12.812 31.98 24.244 26.264 7.9499-3.975 0.10858-23.895-7.5761-24.749" stroke="#000"/>
  <path d="m575.28 450.82c-14.012-15.92-21.781-28.801-44.952-16.162-4.2742 2.3314-9.6253 6.422-8.5863 11.617 2.7977 13.988 32.173 35.574 46.467 30.81 1.3648-0.45495 4.4901-15.94 7.0711-26.264z" stroke="#000"/>
  <path d="m508.11 351.82c-7.8954 10.925 3.4036 56.107 21.718 50.003 13.146-4.3819-4.4255-31.777-21.718-50.003z" stroke="#000"/>
  <path d="m539.93 166.46c-38.392-11.734-79.798 52.67-21.718 27.779 11.092-4.7537 20.067-14.572 21.718-27.779z" stroke="#000"/>
  <path d="m460.63 110.9c-11.548-0.89548-18.489 6.9222-26.769 13.132-30.624 22.968 57.167 57.797 26.769-13.132z" stroke="#000"/>
  <path d="m-20.203 487.18c-29.63 7.5912 3.258 40.09 9.5964 24.244 3.9581-9.8954-9.5964-15.296-9.5964-24.244z" stroke="#000"/>
  <path d="m30.81 518.5c-46.117-20.626 0 61.88 0 0z" stroke="#000"/>
  <path d="m89.904 527.59c-51.291-3.8463 32.522 17.019-2.5254-0.50508" stroke="#000"/>
  <path d="m76.267 702.34c-4.7001-0.42521-7.8947 6.7618-10.102 11.617-10.306 22.673 25.664 17.794 12.627-12.627" stroke="#000"/>
  <path d="m269.29 578.43c-14.857 10.557 13.209 7.2935 0.35715 1.7857" stroke="#000"/>
  <path d="m282.86 575.22c-18.598 6.2433 18.241 11.812 7.5 1.0714-1.7976-1.7976-5.0298-1.0714-7.5-1.0714z" stroke="#000"/>
  <path d="m301.79 568.08c-7.8199 3.3067-2.8826 18.763 6.0714 14.286 5.8793-2.9397 5.4073-20.025-6.0714-14.286z" stroke="#000"/>
  <path d="m328.93 560.93c-31.159 4.0033 3.2143 28.685 3.2143 7.5 0-3.4602 0.39571-4.1161-2.5-5.3571" stroke="#000"/>
  <path d="m341.07 556.29c-27.281 10.95 29.776 7.5756-1.4286-1.7857" stroke="#000"/>
  <path d="m317.5 585.93c-37.317 22.104 47.817-6.7857 18.214-6.7857-6.8052 0-11.809 5.985-18.214 6.7857z" stroke="#000"/>
  <path d="m289.29 591.29c-14.168 12.771 16.41 11.721 0 0z" stroke="#000"/>
  <path d="m269.29 595.93c-2.1077 4.4773 8.1424 5.3568 2.1429 0.35714" stroke="#000"/>
  <path d="m251.43 592.01c-15.433-0.57199 4.5201 10.547 0 0z" stroke="#000"/>
  <path d="m237.14 590.93c-10.181 0.21879 3.0348 7.0812 0 0z" stroke="#000"/>
  <path d="m253.93 601.65c-1.6406 0.86055-5.7177 2.1532-6.4286 4.2857-0.43244 1.2973 1.306 1.4286 2.1429 1.4286 17.03 0 8.7435-8.2616 4.2857-5.7143z" stroke="#000"/>
  <path d="m155.71 595.22c-17.669 14.384 20.892-2.6115-2.8572 0.35715" stroke="#000"/>
  <path d="m177.86 588.08c-10.066 1.5249 10.529 4.7288-1.7857-1.4286" stroke="#000"/>
  <path d="m167.5 592.01c-3.1915 9.5208 6.8327 5.6939 0 0z" stroke="#000"/>
  <path d="m138.93 612.72c-4.8413-0.80426-5.1214 3.0191-7.1429 5.7143-1.4155 1.8874-4.7666-0.5287-6.0714 1.4286-2.9158 4.3736 13.214 4.7757 13.214-7.1429z" stroke="#000"/>
  <path d="m121.07 582.72c-25.225 4.0567 21.286 12.164 0 0z" stroke="#000"/>
  <path d="m105 573.79c-20.957 5.3534-1.8101 16.108 1.0714 11.786 2.1524-3.2286-2.9701-7.3555-1.0714-11.786z" stroke="#000"/>
  <path d="m85.714 570.22c-3.2998-1.0598-4.8082 0.79698-7.5 2.1429-17.989 8.9945 24.555 10.511 6.7857 0.35714" stroke="#000"/>
  <path d="m61.071 562.72c-2.8803 16.557 19.372 24.121 2.1429 0" stroke="#000"/>
  <path d="m108.93 597.72c-6.1677-3.4984-14.323-0.35714-19.286-0.35714-6.6937 0-12.967-8.3654-19.286-6.7857-13.675 3.4188 26.02 22.993 32.857 20.714 0.16305-0.0543 5.2108-12.229 5.7143-13.571z" stroke="#000"/>
  <path d="m121.79 601.65c-8.1 12.878 14.828-1.8535 0 0z" stroke="#000"/>
  <path d="m143.21 603.43c-7.3565 1.7365 7.6949 5.4964 0 0z" stroke="#000"/>
  <path d="m136.43 588.43c-2.5102 4.8652-0.50817 5.7143 3.9286 5.7143 2.3115 0-3.2936-3.4917-3.9286-5.7143z" stroke="#000"/>
  <path d="m236.79 647.72c0.22508 2.6572-1.7571 8.3714 0 10.714 1.701 2.268 3.6736 2.1429 6.4286 2.1429 13.049 0-3.1554-26.753-6.0714-10.714" stroke="#000"/>
  <path d="m218.57 652.01c-4.9886 13.889 15.188 6.5093 0 0z" stroke="#000"/>
  <path d="m121.43 661.29c-4.8205 14.776 12.46 6.6665 1.0714 1.7857" stroke="#000"/>
  <path d="m133.93 639.15c-21.604 1.4469 21.355 15.253 0 0z" stroke="#000"/>
  <path d="m161.79 642.36c-2.7625 0.9553-5.1379 4.7242-3.5714 7.8571 0.69792 1.3958 3.7746 2.7556 5 2.1429 5.1488-2.5744 6.1666-12.19 13.214-15.714 0.44703-0.22352 3.3967-0.18239 3.2143 0-2.3705 2.3705-6.3905-3.6702-9.6429-2.8572-3.7674 0.94184-5.8973 5.791-8.2143 8.5714z" stroke="#000"/>
  <path d="m191.43 634.51c-14.165 16.143 13.23 17.207 11.071 8.5714-1.2002-4.8007-8.8432-4.672-11.071-8.5714z" stroke="#000"/>
  <path d="m267.14 638.08c4.7515 1.2515 9.2197 3.2877 13.929 5 4.51 1.64 18.059 5.4044 12.857-5-5.5261-11.052-24.102 1.5336-26.786 0z" stroke="#000"/>
  <path d="m352.14 603.08c8.3548 0.42138 22.694-22.176 31.786-15.357 11.484 8.6128-4.8109 19.979-7.5 25.357-1.9164 3.8329 15.931 19.177 7.8571 23.214-13.965 6.9823-28.052-2.7607-30.714-16.071-1.1544-5.7718 0.58931-11.762-1.4286-17.143z" stroke="#000"/>
  <path d="m54.548 559.41c-34.674 6.9444-73.557 2.9616-106.07 15.152" fill="none" stroke="#000"/>
  <path d="m68.69 573.55c-31.035 3.0603-62.867-2.7482-92.934 1.0102" fill="none" stroke="#000"/>
  <path d="m79.802 583.65c-34.615-2.676-62.798 8.1536-90.914 20.203" fill="none" stroke="#000"/>
  <path d="m12.122 511.93c-13.767-4.6068-15.986-16.355-24.244-26.264" fill="none" stroke="#000"/>
  <path d="m349.51 513.95c69.438-18.002 135.92-45.932 194.96-82.833" fill="none" stroke="#000"/>
  <path d="m371.74 524.05c26.967-2.8927 77.913-5.1445 91.924-15.152" fill="none" stroke="#000"/>
  <path d="m361.63 543.25c29.098-1.8357 58.615-1.0102 87.883-1.0102" fill="none" stroke="#000"/>
  <path d="m351.53 555.37c30.625-0.11074 62.752-0.79933 91.924-4.0406" fill="none" stroke="#000"/>
  <path d="m460.63 396.77c-23.494 30.796 32.834 24.625 0 0z" stroke="#000"/>
  <path d="m439.42 440.21c-22.745 17.216 18.179 15.149 0 0z" stroke="#000"/>
  <path d="m448.51 469.5c-73.59 16.131 54.281 23.263 0 0z" stroke="#000"/>
  <path d="m380.83 484.66c-44.411-9.8016 4.5277 36.222 0 0z" stroke="#000"/>
  <path d="m335.37 514.96c-33.128-1.912 11.024 19.292 0 0z" stroke="#000"/>
  <path d="m305.07 516.98c0.80673 27.913 24.586 24.586 0 0z" stroke="#000"/>
  <path d="m287.89 529.1c2.4422 50.209 44.073-16.527 0 0z" stroke="#000"/>
  <path d="m506.43 661.65c-1.1608-8.5607 4.7121-13.497 8.5714-19.286 7.1142-10.671 29.504 11.368 31.429 17.143 6.5537 19.661-24.126 23.252-31.429 37.857-2.8751 5.7501 2.628 10.229-1.4286 14.286-74.224 74.224-138.67-39.985-63.571-50.714 17.923-2.5605 37.587 0.71429 56.429 0.71429z" stroke="#000"/>
  <path d="m548.57 575.22c-29.979 36.763 23.654 61.794 48.571 28.571 6.0761-8.1015 4.017-21.874 11.429-29.286 5.5579-5.5579 16.383-4.9083 20.714-13.571 6.4711-12.942-54.553-8.7278-61.429-3.5714-11.542 8.6562-15.067 19.825-22.143 22.857" stroke="#000"/>
  <path d="m643.57 539.51c-29.656 41.135 59.237 0-5.7143 0" stroke="#000"/>
  <path d="m645 658.79c-48.855 49.631-9.0053 83.011 23.571 17.857 10.197-20.393-22.598-29.533-24.286-9.2857" stroke="#000"/>
  <path d="m700 672.36c-38.19 17.24 12.143 43.186 12.143 6.4286 0-6.309-1.6695-5.7444-7.1428-6.4286" stroke="#000"/>
  <path d="m730.71 685.22c-51.963 45.107 45.125 50.125-2.8571 2.1428" stroke="#000"/>
  <path d="m761.43 705.93c-40.873 29.522 24.177 29.58 8.5714 3.5714-2.7554-4.5923-3.2314-4.2389-8.5714-3.5714z" stroke="#000"/>
  <path d="m663.57 720.22c-10.561 30.715 47.964 11.577 19.286-0.71429" stroke="#000"/>
  <path d="m727.86 620.93c-7.1346-2.7885-13.505-7.1428-21.429-7.1428-87.353 0 62.451 54.025 16.429 1.4286" stroke="#000"/>
  <path d="m770 613.08c-7.4554-0.80162-12.878 3.5926-17.857 8.5714-7.4689 7.4689 2.296 46.854 12.143 43.571 14.279-4.7597 0.71369-23.569 2.8571-32.143 1.7044-6.8176 12.73-1.7627 14.286-6.4286 1.5246-4.5737-3.9341-14.945-11.429-13.571z" stroke="#000"/>
  <path d="m772.14 573.79c-49.021-4.3318 16.201 37.803 0 0z" stroke="#000"/>
  <path d="m773.57 548.08c-38.258 3.2148 4.5969 41.372 0 0z" stroke="#000"/>
  <path d="m747.14 550.22c-37.803 2.3099-10.693 28.897-7.1428 23.571 4.2049-6.3074 3.8516-17.812 7.1428-23.571z" stroke="#000"/>
  <path d="m715 558.79c-26.547 4.4545 0.80689 34.722 5.7143 20 2.7409-8.2227 16.798-46.314 0-40.714-11.407 3.8024 7.0026 17.081-5.7143 20.714z" stroke="#000"/>
  <path d="m705 492.36c-52.549 48.692 31.14 22.243 0 0z" stroke="#000"/>
  <path d="m676.43 455.22c-44.842 29.417 34.234 32.091 13.571 11.429-6.3732-6.3732-3.7545-8.6237-13.571-11.429z" stroke="#000"/>
  <path d="m105.56 483.14c-11.843-11.927 8.9982-25.533 14.142-10.102 1.3842 4.1527-9.4281 12.122-5.0508 12.122 21.329 0-4.125 8.7551-4.5457 9.5964-1.5268 3.0536-5.0508 17.062-5.0508 20.203 0 8.3164-1.0523 20.119 2.5254 27.274 0.90312 1.8062 8.0162 7.8612 3.5355 10.102-14.205 7.1024-9.2145-11.678-12.122-13.132-0.71803-0.35901-11.874 0.48628-12.122-0.50507-0.65156-2.6062-1.7671-11.366-1.0102-13.637 0.89995-2.6999 8.1959-0.0573 10.102-1.0102 10.909-5.4546 9.5964-32.437 9.5964-40.911z"/>
  <path d="m507.1 592.74c-129.55 56.881-41.102 82.203 0 0z"/>
  <path d="m317.95 406.87c-3.0187 14.934 10.859 29.891 10.859 43.184 0 0.67344-0.13207-1.36 0-2.0203 0.57973-2.8986 4.6771-8.2278 6.8185-10.102 3.8881-3.4021 10.072-6.7294 14.647-9.3439 1.0465-0.59798 4.0746 0.32041 3.5355-0.75762-2.2047-4.4093-14.409-5.6683-18.435-6.8185-5.6826-1.6236-11.868-10.967-17.425-14.142z"/>
  <path d="m-3.5355 364.45c-14.633 11.245-17.298 32.389-6.566 48.487 2.7471 4.1207 15.336 8.8008 20.203 5.5558 3.5714-2.381 11.617-9.8482 11.617-5.5558 0 6.7608-26.869 10.709-32.325 7.0711-6.708-4.472-2.8333-18.337-7.5761-20.708-0.80929-0.40465-7.113-3.7671-7.5761-3.5355-2.3188 1.1594 2.1062 12.96 1.0102 15.152-2.6196 5.2393-12.854 1.3391-14.142-2.5254-1.4866-4.4598 2.0203-9.2491 2.0203-13.132 0-6.4395-8.1788-18.493-5.0508-24.749 1.2075-2.4149 5.7422-2.2256 7.5761-3.5355 0.99401-0.71 3.9444-5.2431 5.5558-2.0203 2.6737 5.3474-4.789 14.666-3.5355 17.173 2.7291 5.4582 21.941-41.647 28.789-17.678z"/>
  <path d="m-3.5355 289.19c-13.354-10.181 7.4303-23.858-12.627-17.173-2.8807 0.96023-8.131 8.7355-9.0914 11.617-1.0305 3.0915 5.7848 17.354 7.0711 21.213 1.5922 4.7765-3.7265 21.423-1.0102 23.234 14.733 9.8222 19.751-31.728 15.657-38.891z"/>
  <path d="m171.22 662.44c-1.3428 5.1391 2.5254 11.68 2.5254 15.657 0 5.5216-2.352-21.632 6.566-17.173 5.6138 2.8069-1.6859 13.804 2.0203 15.657 6.9761 3.4881 6.5221-7.5542 9.5964-9.0914 3.3671-1.6836 1.846 9.0333 5.0508 10.102 4.9569 1.6523 14.142-8.3221 14.142-12.627 0-11.041-34.744-11.551-39.901-2.5254z"/>
 </g>
</svg>
